<svg width="13" height="13" viewBox="0 0 13 13" fill="none" xmlns="http://www.w3.org/2000/svg">
<path d="M7.37667 12.2102L12.3767 7.21019C12.4677 7.11508 12.5391 7.00294 12.5867 6.88019C12.6867 6.63672 12.6867 6.36365 12.5867 6.12019C12.5391 5.99743 12.4677 5.88529 12.3767 5.79019L7.37667 0.790185C7.28343 0.696947 7.17274 0.622986 7.05092 0.572526C6.9291 0.522065 6.79853 0.496093 6.66667 0.496093C6.40037 0.496093 6.14497 0.601881 5.95667 0.790185C5.76836 0.978489 5.66258 1.23388 5.66258 1.50019C5.66258 1.76649 5.76836 2.02188 5.95667 2.21019L9.25667 5.50019L1.66667 5.50019C1.40145 5.50018 1.1471 5.60554 0.959561 5.79308C0.772025 5.98061 0.666669 6.23497 0.666669 6.50018C0.666669 6.7654 0.772025 7.01976 0.959561 7.20729C1.1471 7.39483 1.40145 7.50018 1.66667 7.50019L9.25667 7.50019L5.95667 10.7902C5.86294 10.8831 5.78855 10.9937 5.73778 11.1156C5.68701 11.2375 5.66087 11.3682 5.66087 11.5002C5.66087 11.6322 5.68701 11.7629 5.73778 11.8848C5.78855 12.0066 5.86294 12.1172 5.95667 12.2102C6.04963 12.3039 6.16023 12.3783 6.28209 12.4291C6.40395 12.4798 6.53466 12.506 6.66667 12.506C6.79868 12.506 6.92939 12.4798 7.05124 12.4291C7.1731 12.3783 7.2837 12.3039 7.37667 12.2102Z" fill="#FFC700"/>
</svg>
