<svg width="430" height="316" viewBox="0 0 430 316" fill="none" xmlns="http://www.w3.org/2000/svg">
<path opacity="0.5" d="M395.828 291.946C395.828 292.986 317.619 293.827 221.137 293.827C124.654 293.827 46.4452 292.986 46.4452 291.946C46.4452 290.905 124.654 290.064 221.137 290.064C317.619 290.064 395.828 290.905 395.828 291.946Z" fill="#7DA0B6"/>
<path d="M429.24 282.341C416.559 277.33 402.581 278.034 389.556 281.308C382.243 283.141 375.138 286.407 367.585 287.135C360.248 287.848 353.183 285.534 346.175 283.733C332.013 280.091 317.243 278.907 302.682 280.291C295.313 280.996 288.064 282.381 280.911 284.302C274.207 286.103 267.446 288.088 260.429 287.447C253.148 286.783 246.348 283.277 243.187 276.417C239.531 268.468 241.147 259.431 242.651 251.178C242.915 249.746 240.715 249.129 240.451 250.57C238.195 262.961 236.466 278.899 249.204 286.367C261.509 293.579 275.399 287.664 288.016 284.878C303.53 281.452 319.748 281.068 335.405 283.741C343.078 285.054 350.455 287.68 358.128 288.944C365.289 290.129 371.914 289.024 378.778 286.895C395.124 281.828 412.062 277.97 428.64 284.518C429.992 285.078 430.584 282.877 429.24 282.341Z" fill="#3A4574"/>
<path d="M253.988 287.32H274.887C276.255 287.32 277.367 286.207 277.367 284.838V242.182H312.611V284.838C312.611 286.207 313.723 287.32 315.091 287.32H335.157C336.526 287.32 337.638 288.433 337.638 289.801C337.638 291.17 336.526 292.283 335.157 292.283H253.988C252.62 292.283 251.508 291.17 251.508 289.801C251.508 288.433 252.62 287.32 253.988 287.32Z" fill="#3A4574"/>
<path d="M259.093 287.32H279.991C281.359 287.32 282.472 286.207 282.472 284.838V242.182H317.715V284.838C317.715 286.207 318.828 287.32 320.196 287.32H340.262C341.63 287.32 342.742 288.433 342.742 289.801C342.742 291.17 341.63 292.283 340.262 292.283H259.093C257.725 292.283 256.613 291.17 256.613 289.801C256.613 288.433 257.725 287.32 259.093 287.32Z" fill="#716E93"/>
<path d="M391.116 123.776H196.486C192.061 123.776 188.477 127.362 188.477 131.789V247.048C188.477 251.475 192.061 255.069 196.486 255.069H391.116C395.54 255.069 399.125 251.483 399.125 247.048V131.797C399.133 127.37 395.54 123.776 391.116 123.776Z" fill="#3A4574"/>
<path d="M397.204 123.776H202.575C198.15 123.776 194.558 127.362 194.558 131.789V247.048C194.558 251.475 198.142 255.069 202.575 255.069H397.204C401.629 255.069 405.213 251.483 405.213 247.048V131.797C405.213 127.37 401.629 123.776 397.204 123.776Z" fill="#716E93"/>
<path d="M203.943 243.655C202.039 243.655 200.494 242.11 200.494 240.204V134.535C200.494 132.63 202.039 131.085 203.943 131.085H395.828C397.732 131.085 399.277 132.63 399.277 134.535V240.204C399.277 242.11 397.732 243.655 395.828 243.655H203.943Z" fill="white"/>
<path d="M277.367 255.077H317.715V272.199L277.367 258.399V255.077Z" fill="#3A4574"/>
<path d="M226.641 137.112H213.36C211.84 137.112 210.616 138.345 210.616 139.858V153.146C210.616 154.667 211.848 155.891 213.36 155.891H226.641C228.161 155.891 229.386 154.659 229.386 153.146V139.858C229.394 138.345 228.161 137.112 226.641 137.112Z" fill="#FFB965"/>
<path d="M220.841 157.348H211.84C211.168 157.348 210.616 157.892 210.616 158.572C210.616 159.245 211.16 159.797 211.84 159.797H220.841C221.513 159.797 222.065 159.253 222.065 158.572C222.057 157.892 221.513 157.348 220.841 157.348Z" fill="#D3D8FF"/>
<path d="M228.169 157.348H225.913C225.241 157.348 224.689 157.892 224.689 158.572C224.689 159.245 225.233 159.797 225.913 159.797H228.169C228.842 159.797 229.394 159.253 229.394 158.572C229.394 157.892 228.842 157.348 228.169 157.348Z" fill="#D3D8FF"/>
<path d="M223.393 158.564C223.057 158.564 222.785 158.837 222.785 159.173C222.785 159.509 223.057 159.781 223.393 159.781C223.729 159.781 224.001 159.509 224.001 159.173C224.001 158.837 223.729 158.564 223.393 158.564Z" fill="#D3D8FF"/>
<path d="M252.572 137.112H239.291C237.771 137.112 236.546 138.345 236.546 139.858V153.146C236.546 154.667 237.779 155.891 239.291 155.891H252.572C254.092 155.891 255.317 154.659 255.317 153.146V139.858C255.325 138.345 254.092 137.112 252.572 137.112Z" fill="#FFB965"/>
<path d="M241.731 157.348H237.771C237.098 157.348 236.546 157.892 236.546 158.572C236.546 159.245 237.09 159.797 237.771 159.797H241.731C242.403 159.797 242.955 159.253 242.955 158.572C242.955 157.892 242.403 157.348 241.731 157.348Z" fill="#D3D8FF"/>
<path d="M249.068 157.348H246.812C246.14 157.348 245.587 157.892 245.587 158.572C245.587 159.245 246.132 159.797 246.812 159.797H249.068C249.74 159.797 250.292 159.253 250.292 158.572C250.284 157.892 249.74 157.348 249.068 157.348Z" fill="#D3D8FF"/>
<path d="M244.291 158.564C243.955 158.564 243.683 158.837 243.683 159.173C243.683 159.509 243.955 159.781 244.291 159.781C244.627 159.781 244.899 159.509 244.899 159.173C244.899 158.837 244.627 158.564 244.291 158.564Z" fill="#D3D8FF"/>
<path d="M278.511 137.112H265.23C263.709 137.112 262.485 138.345 262.485 139.858V153.146C262.485 154.667 263.717 155.891 265.23 155.891H278.511C280.031 155.891 281.255 154.659 281.255 153.146V139.858C281.255 138.345 280.023 137.112 278.511 137.112Z" fill="#FFB965"/>
<path d="M271.782 157.348H263.701C263.029 157.348 262.477 157.892 262.477 158.572C262.477 159.245 263.021 159.797 263.701 159.797H271.782C272.454 159.797 273.006 159.253 273.006 158.572C273.006 157.892 272.462 157.348 271.782 157.348Z" fill="#D3D8FF"/>
<path d="M279.119 157.348H276.863C276.191 157.348 275.639 157.892 275.639 158.572C275.639 159.245 276.183 159.797 276.863 159.797H279.119C279.791 159.797 280.343 159.253 280.343 158.572C280.335 157.892 279.791 157.348 279.119 157.348Z" fill="#D3D8FF"/>
<path d="M274.343 158.564C274.007 158.564 273.735 158.837 273.735 159.173C273.735 159.509 274.007 159.781 274.343 159.781C274.679 159.781 274.951 159.509 274.951 159.173C274.951 158.837 274.679 158.564 274.343 158.564Z" fill="#D3D8FF"/>
<path d="M387.947 137.112H374.666C373.146 137.112 371.921 138.345 371.921 139.858V153.146C371.921 154.667 373.154 155.891 374.666 155.891H387.947C389.467 155.891 390.692 154.659 390.692 153.146V139.858C390.692 138.345 389.459 137.112 387.947 137.112Z" fill="#FFB965"/>
<path d="M382.139 157.348H373.138C372.466 157.348 371.914 157.892 371.914 158.572C371.914 159.245 372.458 159.797 373.138 159.797H382.139C382.811 159.797 383.363 159.253 383.363 158.572C383.355 157.892 382.811 157.348 382.139 157.348Z" fill="#D3D8FF"/>
<path d="M389.467 157.348H387.211C386.539 157.348 385.987 157.892 385.987 158.572C385.987 159.245 386.531 159.797 387.211 159.797H389.467C390.14 159.797 390.692 159.253 390.692 158.572C390.692 157.892 390.148 157.348 389.467 157.348Z" fill="#D3D8FF"/>
<path d="M384.691 158.564C384.355 158.564 384.083 158.837 384.083 159.173C384.083 159.509 384.355 159.781 384.691 159.781C385.027 159.781 385.299 159.509 385.299 159.173C385.307 158.837 385.027 158.564 384.691 158.564Z" fill="#D3D8FF"/>
<path d="M387.947 164.952H374.666C373.146 164.952 371.921 166.185 371.921 167.698V180.985C371.921 182.506 373.154 183.731 374.666 183.731H387.947C389.467 183.731 390.692 182.498 390.692 180.985V167.698C390.692 166.185 389.459 164.952 387.947 164.952Z" fill="#FFB965"/>
<path d="M378.93 185.188H373.138C372.466 185.188 371.914 185.732 371.914 186.412C371.914 187.085 372.458 187.637 373.138 187.637H378.93C379.602 187.637 380.154 187.093 380.154 186.412C380.154 185.74 379.602 185.188 378.93 185.188Z" fill="#D3D8FF"/>
<path d="M386.267 185.188H384.011C383.339 185.188 382.787 185.732 382.787 186.412C382.787 187.085 383.331 187.637 384.011 187.637H386.267C386.939 187.637 387.491 187.093 387.491 186.412C387.483 185.74 386.939 185.188 386.267 185.188Z" fill="#D3D8FF"/>
<path d="M381.491 186.413C381.155 186.413 380.883 186.685 380.883 187.021C380.883 187.358 381.155 187.63 381.491 187.63C381.827 187.63 382.099 187.358 382.099 187.021C382.099 186.685 381.827 186.413 381.491 186.413Z" fill="#D3D8FF"/>
<path d="M226.641 164.952H213.36C211.84 164.952 210.616 166.185 210.616 167.698V180.985C210.616 182.506 211.848 183.731 213.36 183.731H226.641C228.161 183.731 229.386 182.498 229.386 180.985V167.698C229.394 166.185 228.161 164.952 226.641 164.952Z" fill="#FFB965"/>
<path d="M219.008 185.188H211.84C211.168 185.188 210.616 185.732 210.616 186.412C210.616 187.085 211.16 187.637 211.84 187.637H219.008C219.681 187.637 220.233 187.093 220.233 186.412C220.225 185.74 219.681 185.188 219.008 185.188Z" fill="#D3D8FF"/>
<path d="M226.337 185.188H224.081C223.409 185.188 222.857 185.732 222.857 186.412C222.857 187.085 223.401 187.637 224.081 187.637H226.337C227.009 187.637 227.561 187.093 227.561 186.412C227.561 185.74 227.009 185.188 226.337 185.188Z" fill="#D3D8FF"/>
<path d="M221.561 186.413C221.225 186.413 220.953 186.685 220.953 187.021C220.953 187.358 221.225 187.63 221.561 187.63C221.897 187.63 222.169 187.358 222.169 187.021C222.169 186.685 221.897 186.413 221.561 186.413Z" fill="#D3D8FF"/>
<path d="M366.073 159.093H233.29C231.146 159.093 229.418 160.83 229.418 162.967V209.834C229.418 211.98 231.154 213.709 233.29 213.709H366.073C368.217 213.709 369.945 211.972 369.945 209.834V162.967C369.945 160.83 368.209 159.093 366.073 159.093Z" fill="#9BBEF6"/>
<path d="M251.388 184.004C253.268 184.004 254.748 183.54 255.669 182.667C256.597 181.803 257.085 180.546 257.085 179.049C257.085 177.624 256.613 176.496 255.693 175.687C254.812 174.903 253.524 174.526 251.764 174.526C250.908 174.526 250.036 174.59 249.18 174.71L248.98 174.742V183.884L249.196 183.908C249.836 183.964 250.58 184.004 251.388 184.004ZM250.644 176.135C250.644 176.047 250.708 175.967 250.796 175.959C251.044 175.927 251.38 175.903 251.812 175.903C253.02 175.903 253.94 176.207 254.548 176.816C255.084 177.352 255.357 178.12 255.349 179.081C255.349 181.354 254.028 182.603 251.62 182.603C251.388 182.603 251.084 182.603 250.804 182.579C250.708 182.571 250.636 182.491 250.636 182.395V176.135H250.644Z" fill="white"/>
<path d="M257.901 184.003H259.261C259.341 184.003 259.405 183.955 259.429 183.883L260.309 181.338C260.333 181.266 260.405 181.218 260.477 181.218H263.181C263.261 181.218 263.325 181.266 263.349 181.338L264.254 183.883C264.278 183.955 264.35 184.003 264.422 184.003H265.822C265.95 184.003 266.038 183.875 265.99 183.763L262.773 174.79C262.749 174.718 262.677 174.67 262.605 174.67H261.077C260.997 174.67 260.933 174.718 260.909 174.79L257.709 183.763C257.693 183.875 257.781 184.003 257.901 184.003ZM260.869 179.601L261.581 177.592C261.669 177.327 261.749 177.063 261.837 176.759C261.917 177.031 262.005 177.311 262.109 177.608L262.821 179.601C262.861 179.721 262.773 179.841 262.653 179.841H261.037C260.909 179.841 260.821 179.721 260.869 179.601Z" fill="white"/>
<path d="M269.774 183.82V176.295C269.774 176.191 269.854 176.111 269.958 176.111H272.438C272.542 176.111 272.622 176.031 272.622 175.927V174.838C272.622 174.734 272.542 174.654 272.438 174.654H265.438C265.334 174.654 265.254 174.734 265.254 174.838V175.927C265.254 176.031 265.334 176.111 265.438 176.111H267.902C268.006 176.111 268.086 176.191 268.086 176.295V183.82C268.086 183.924 268.166 184.004 268.27 184.004H269.598C269.694 184.004 269.774 183.924 269.774 183.82Z" fill="white"/>
<path d="M278.615 184.003H280.023C280.151 184.003 280.239 183.875 280.191 183.763L276.975 174.79C276.951 174.718 276.879 174.67 276.807 174.67H275.279C275.199 174.67 275.135 174.718 275.111 174.79L271.91 183.763C271.87 183.883 271.958 184.003 272.078 184.003H273.439C273.519 184.003 273.583 183.955 273.607 183.883L274.487 181.338C274.511 181.266 274.583 181.218 274.655 181.218H277.359C277.439 181.218 277.503 181.266 277.527 181.338L278.439 183.883C278.471 183.955 278.535 184.003 278.615 184.003ZM276.815 179.841H275.199C275.071 179.841 274.983 179.721 275.031 179.601L275.743 177.592C275.831 177.327 275.911 177.063 275.999 176.759C276.079 177.031 276.167 177.311 276.271 177.608L276.983 179.601C277.031 179.721 276.943 179.841 276.815 179.841Z" fill="white"/>
<path d="M293.209 181.274C293.041 180.569 292.753 180.041 292.361 179.697C292.265 179.617 292.297 179.465 292.401 179.401C293.169 178.92 293.601 178.16 293.601 177.239C293.601 176.479 293.313 175.815 292.785 175.374C292.161 174.838 291.281 174.59 289.936 174.59C289.072 174.59 288.192 174.662 287.584 174.782L287.392 174.822V183.819C287.392 183.923 287.472 184.003 287.576 184.003H288.888C288.992 184.003 289.072 183.923 289.072 183.819V180.345C289.072 180.241 289.152 180.161 289.256 180.161H289.96C290.936 180.193 291.353 180.585 291.601 181.698C291.913 183.003 292.097 183.635 292.249 183.883L292.321 183.995H294.105L293.905 183.643C293.721 183.323 293.489 182.418 293.209 181.274ZM290.064 178.816H289.256C289.152 178.816 289.072 178.736 289.072 178.632V176.167C289.072 176.071 289.144 175.999 289.232 175.983C289.432 175.959 289.696 175.943 290.016 175.943C290.888 175.951 291.921 176.207 291.921 177.359C291.929 178.264 291.209 178.816 290.064 178.816Z" fill="white"/>
<path d="M300.826 182.563H297.153C297.049 182.563 296.969 182.483 296.969 182.379V180.026C296.969 179.922 297.049 179.842 297.153 179.842H300.41C300.514 179.842 300.594 179.761 300.594 179.657V178.601C300.594 178.497 300.514 178.417 300.41 178.417H297.153C297.049 178.417 296.969 178.337 296.969 178.233V176.271C296.969 176.167 297.049 176.087 297.153 176.087H300.618C300.722 176.087 300.802 176.007 300.802 175.903V174.831C300.802 174.727 300.722 174.646 300.618 174.646H295.481C295.377 174.646 295.297 174.727 295.297 174.831V183.804C295.297 183.908 295.377 183.988 295.481 183.988H300.826C300.93 183.988 301.01 183.908 301.01 183.804V182.731C301.01 182.651 300.93 182.563 300.826 182.563Z" fill="white"/>
<path d="M307.162 175.823C307.826 175.823 308.458 175.944 308.938 176.168L309.187 176.28L309.619 174.895L309.435 174.807C309.235 174.711 308.482 174.391 307.122 174.391C304.122 174.391 302.026 176.4 302.026 179.281C302.026 182.147 303.922 184.004 306.858 184.004C308.058 184.004 308.97 183.772 309.419 183.564L309.595 183.476L309.219 182.107L308.962 182.227C308.498 182.443 307.786 182.571 307.098 182.571C305.01 182.571 303.762 181.331 303.762 179.249C303.762 177.104 305.034 175.823 307.162 175.823Z" fill="white"/>
<path d="M314.771 174.374C312.083 174.374 310.211 176.383 310.211 179.265C310.211 182.05 312.027 184.004 314.635 184.004C316.907 184.004 319.196 182.483 319.196 179.097C319.196 176.271 317.419 174.374 314.771 174.374ZM314.707 182.595C312.835 182.595 311.979 180.858 311.979 179.241C311.979 177.52 312.827 175.783 314.723 175.783C316.595 175.783 317.451 177.528 317.451 179.145C317.451 180.866 316.603 182.595 314.707 182.595Z" fill="white"/>
<path d="M327.773 174.662H326.364C326.284 174.662 326.22 174.71 326.196 174.782L324.612 179.201C324.396 179.809 324.156 180.481 323.948 181.146C323.892 181.314 323.652 181.314 323.604 181.146C323.428 180.546 323.22 179.905 322.98 179.201L321.516 174.798C321.492 174.726 321.42 174.67 321.34 174.67H319.924C319.796 174.67 319.716 174.79 319.756 174.91L322.836 183.883C322.86 183.956 322.932 184.004 323.004 184.004H324.412C324.484 184.004 324.556 183.956 324.58 183.883L327.949 174.91C327.989 174.79 327.901 174.662 327.773 174.662Z" fill="white"/>
<path d="M334.469 182.563H330.797C330.693 182.563 330.613 182.483 330.613 182.379V180.026C330.613 179.922 330.693 179.842 330.797 179.842H334.053C334.157 179.842 334.237 179.761 334.237 179.657V178.601C334.237 178.497 334.157 178.417 334.053 178.417H330.797C330.693 178.417 330.613 178.337 330.613 178.233V176.271C330.613 176.167 330.693 176.087 330.797 176.087H334.261C334.365 176.087 334.445 176.007 334.445 175.903V174.831C334.445 174.727 334.365 174.646 334.261 174.646H329.125C329.021 174.646 328.941 174.727 328.941 174.831V183.804C328.941 183.908 329.021 183.988 329.125 183.988H334.469C334.573 183.988 334.653 183.908 334.653 183.804V182.731C334.645 182.651 334.565 182.563 334.469 182.563Z" fill="white"/>
<path d="M342.022 181.274C341.854 180.569 341.566 180.041 341.174 179.697C341.078 179.617 341.11 179.465 341.214 179.401C341.982 178.92 342.414 178.16 342.414 177.239C342.414 176.479 342.126 175.815 341.598 175.374C340.974 174.838 340.094 174.59 338.75 174.59C337.886 174.59 337.006 174.662 336.398 174.782L336.206 174.822V183.819C336.206 183.923 336.286 184.003 336.39 184.003H337.702C337.806 184.003 337.886 183.923 337.886 183.819V180.345C337.886 180.241 337.966 180.161 338.07 180.161H338.774C339.75 180.193 340.166 180.585 340.414 181.698C340.726 183.003 340.91 183.635 341.062 183.883L341.134 183.995H342.918L342.718 183.643C342.534 183.323 342.302 182.418 342.022 181.274ZM338.878 178.816H338.07C337.966 178.816 337.886 178.736 337.886 178.632V176.167C337.886 176.071 337.958 175.999 338.046 175.983C338.246 175.959 338.51 175.943 338.83 175.943C339.702 175.951 340.734 176.207 340.734 177.359C340.734 178.264 340.022 178.816 338.878 178.816Z" fill="white"/>
<path d="M350.711 174.518H349.207C349.143 174.518 349.079 174.558 349.047 174.614L347.695 177.087L347.567 177.327C347.407 177.632 347.255 177.904 347.119 178.176C347.047 178.312 346.863 178.312 346.799 178.176C346.631 177.848 346.455 177.496 346.231 177.079L344.903 174.606C344.871 174.55 344.807 174.51 344.743 174.51H343.246C343.11 174.51 343.022 174.662 343.086 174.782L346.023 179.873C346.039 179.897 346.047 179.929 346.047 179.961V183.667C346.047 183.771 346.127 183.851 346.231 183.851H347.559C347.663 183.851 347.743 183.771 347.743 183.667V179.953C347.743 179.921 347.751 179.889 347.767 179.857L350.879 174.782C350.935 174.678 350.847 174.518 350.711 174.518Z" fill="white"/>
<path d="M347.287 198.116C347.287 201.046 344.903 203.431 341.974 203.431H257.381C254.452 203.431 252.068 201.046 252.068 198.116C252.068 195.178 254.452 192.801 257.381 192.801H341.974C344.903 192.801 347.287 195.178 347.287 198.116Z" fill="white"/>
<path d="M341.974 192.8H257.381C254.452 192.8 252.068 195.178 252.068 198.115C252.068 201.045 254.452 203.43 257.381 203.43H341.974C344.903 203.43 347.287 201.045 347.287 198.115C347.287 195.178 344.903 192.8 341.974 192.8ZM341.974 203.959H257.381C254.156 203.959 251.532 201.333 251.532 198.107C251.532 194.881 254.156 192.256 257.381 192.256H341.974C345.199 192.256 347.823 194.881 347.823 198.107C347.823 201.341 345.199 203.959 341.974 203.959ZM257.381 193.328C254.748 193.328 252.596 195.474 252.596 198.115C252.596 200.749 254.74 202.894 257.381 202.894H341.974C344.606 202.894 346.759 200.749 346.759 198.115C346.759 195.482 344.614 193.328 341.974 193.328H257.381Z" fill="white"/>
<path d="M257.173 195.811C255.901 195.811 254.868 196.843 254.868 198.116C254.868 199.389 255.901 200.421 257.173 200.421C258.445 200.421 259.477 199.389 259.477 198.116C259.485 196.843 258.453 195.811 257.173 195.811Z" fill="#6E79C3"/>
<path d="M263.037 195.811C261.765 195.811 260.733 196.843 260.733 198.116C260.733 199.389 261.765 200.421 263.037 200.421C264.31 200.421 265.342 199.389 265.342 198.116C265.342 196.843 264.31 195.811 263.037 195.811Z" fill="#6E79C3"/>
<path d="M268.894 195.811C267.622 195.811 266.59 196.843 266.59 198.116C266.59 199.389 267.622 200.421 268.894 200.421C270.166 200.421 271.198 199.389 271.198 198.116C271.206 196.843 270.174 195.811 268.894 195.811Z" fill="#6E79C3"/>
<path d="M274.759 195.811C273.487 195.811 272.454 196.843 272.454 198.116C272.454 199.389 273.487 200.421 274.759 200.421C276.031 200.421 277.063 199.389 277.063 198.116C277.063 196.843 276.031 195.811 274.759 195.811Z" fill="#6E79C3"/>
<path d="M280.615 195.811C279.343 195.811 278.311 196.843 278.311 198.116C278.311 199.389 279.343 200.421 280.615 200.421C281.888 200.421 282.92 199.389 282.92 198.116C282.928 196.843 281.896 195.811 280.615 195.811Z" fill="#6E79C3"/>
<path d="M286.48 195.811C285.208 195.811 284.176 196.843 284.176 198.116C284.176 199.389 285.208 200.421 286.48 200.421C287.752 200.421 288.784 199.389 288.784 198.116C288.784 196.843 287.752 195.811 286.48 195.811Z" fill="#6E79C3"/>
<path d="M292.337 195.811C291.065 195.811 290.032 196.843 290.032 198.116C290.032 199.389 291.065 200.421 292.337 200.421C293.609 200.421 294.641 199.389 294.641 198.116C294.641 196.843 293.609 195.811 292.337 195.811Z" fill="#6E79C3"/>
<path d="M298.201 195.811C296.929 195.811 295.897 196.843 295.897 198.116C295.897 199.389 296.929 200.421 298.201 200.421C299.473 200.421 300.506 199.389 300.506 198.116C300.506 196.843 299.473 195.811 298.201 195.811Z" fill="#6E79C3"/>
<path d="M304.058 195.811C302.786 195.811 301.754 196.843 301.754 198.116C301.754 199.389 302.786 200.421 304.058 200.421C305.33 200.421 306.362 199.389 306.362 198.116C306.362 196.843 305.33 195.811 304.058 195.811Z" fill="#6E79C3"/>
<path d="M309.923 195.811C308.65 195.811 307.618 196.843 307.618 198.116C307.618 199.389 308.65 200.421 309.923 200.421C311.195 200.421 312.227 199.389 312.227 198.116C312.227 196.843 311.195 195.811 309.923 195.811Z" fill="#6E79C3"/>
<path d="M315.779 195.811C314.507 195.811 313.475 196.843 313.475 198.116C313.475 199.389 314.507 200.421 315.779 200.421C317.051 200.421 318.084 199.389 318.084 198.116C318.084 196.843 317.051 195.811 315.779 195.811Z" fill="#6E79C3"/>
<path d="M321.644 195.811C320.372 195.811 319.34 196.843 319.34 198.116C319.34 199.389 320.372 200.421 321.644 200.421C322.916 200.421 323.948 199.389 323.948 198.116C323.948 196.843 322.916 195.811 321.644 195.811Z" fill="#6E79C3"/>
<path d="M135.647 96.7126C135.119 97.9694 134.599 99.2261 134.071 100.483C133.703 101.355 133.287 102.3 132.455 102.764C131.695 103.196 130.671 103.1 130.007 102.54C131.207 101.692 132.167 100.587 132.799 99.2581C133.095 98.6338 133.319 97.9694 133.743 97.4251C134.175 96.8807 134.975 96.5606 135.647 96.7126Z" fill="#2F335B"/>
<path d="M131.975 107.206C131.975 107.206 127.694 108.063 126.462 106.286C126.462 106.286 126.622 105.837 126.774 105.109C126.982 104.068 127.174 102.475 126.862 100.834L132.503 100.25C132.495 100.258 131.695 103.156 131.975 107.206Z" fill="#FFA49C"/>
<path d="M131.975 101.019C131.975 101.019 130.007 104.029 126.766 105.109C126.974 104.069 127.166 102.476 126.854 100.835L131.975 101.019Z" fill="#C25F6E"/>
<path d="M128.262 92.0459C127.614 93.2626 127.534 94.7595 128.046 96.0322C128.326 95.1037 128.606 94.2071 128.886 93.2786C129.014 92.8464 129.134 92.3341 128.854 91.9819C128.766 91.8698 128.638 91.7897 128.502 91.8058C128.366 91.8138 128.206 91.9178 128.262 92.0459Z" fill="#222747"/>
<path d="M128.438 92.3099C128.494 94.223 127.91 96.1522 126.806 97.7131C126.182 98.5936 125.35 99.4581 125.302 100.539C125.238 101.964 126.694 103.132 128.118 103.148C129.542 103.164 130.855 102.316 131.831 101.275C133.623 99.37 134.591 96.7205 134.447 94.103C132.815 92.9663 130.439 92.2619 128.438 92.3099Z" fill="#FFA49C"/>
<path d="M129.174 99.6341C128.174 99.6662 127.366 99.314 126.95 99.0738C126.806 98.9938 126.614 99.0898 126.606 99.2419C126.462 102.156 128.43 100.747 129.318 99.9703C129.462 99.8423 129.366 99.6261 129.174 99.6341Z" fill="white"/>
<path d="M128.534 98.7293C128.542 98.7693 128.43 98.7933 128.286 98.7613C128.134 98.7293 127.942 98.6332 127.782 98.4331C127.782 98.4331 127.774 98.4251 127.774 98.4171C127.678 98.289 127.63 98.153 127.614 98.0329C127.582 97.8568 127.614 97.7127 127.654 97.6487C127.678 97.6086 127.694 97.5926 127.718 97.6006C127.726 97.6006 127.734 97.6086 127.75 97.6166C127.782 97.6567 127.806 97.7687 127.846 97.8968C127.886 97.9929 127.926 98.0969 127.998 98.201C128.006 98.217 128.014 98.225 128.022 98.233C128.134 98.3931 128.27 98.4972 128.382 98.5692C128.478 98.6412 128.542 98.6893 128.534 98.7293Z" fill="#DC6478"/>
<path d="M124.486 115.115C122.198 118.253 115.333 122.223 115.333 122.223C110.404 120.11 106.636 116.108 103.708 113.498C104.188 112.45 104.884 111.497 105.756 110.729C110.948 113.97 114.685 116.164 114.685 116.164C116.885 114.387 119.741 111.001 119.741 111.001C121.094 113.21 124.486 115.115 124.486 115.115Z" fill="#F88A84"/>
<path d="M139.264 116.684C139.032 118.397 138.832 120.694 138.663 123.184C138.415 126.946 138.103 134.799 137.999 138.089C137.999 138.177 137.999 138.257 137.991 138.345C137.983 138.497 137.983 138.649 137.975 138.793C137.951 139.537 137.935 140.234 137.919 140.842C133.463 141.483 128.942 141.691 124.446 141.475C124.15 141.459 123.862 141.443 123.566 141.427C122.662 141.371 121.75 141.298 120.845 141.202C120.837 141.202 120.829 141.202 120.813 141.202C120.269 141.146 119.725 141.09 119.181 141.018C119.581 139.105 120.045 133.59 120.341 131.765C120.437 131.133 120.533 130.508 120.621 129.892C120.669 129.572 120.709 129.251 120.749 128.939C120.966 127.338 121.142 125.785 121.286 124.305C121.462 122.496 121.582 120.783 121.67 119.206C121.326 119.029 121.014 118.837 120.725 118.629C117.941 117.116 117.165 113.826 117.165 113.826L120.821 109.216L120.837 109.192L121.43 108.447L121.446 108.431C121.862 107.999 122.35 107.647 122.894 107.383C123.534 107.071 124.294 106.71 124.774 106.486C125.062 106.358 125.342 106.222 125.638 106.094C125.966 105.95 126.286 105.798 126.606 105.654C128.438 104.813 130.543 104.765 132.407 105.518C132.415 105.518 132.431 105.526 132.439 105.534C132.455 105.534 132.471 105.542 132.495 105.55C133.055 105.774 133.623 105.998 134.183 106.222C135.663 106.814 137.207 107.455 138.231 108.679C139.992 110.825 139.632 113.947 139.264 116.684Z" fill="#37538B"/>
<path d="M138.551 134.574C138.551 134.582 138.455 144.236 138.351 155.738H128.462L128.334 154.25L127.71 147.013L127.502 148.382L126.374 155.738H117.693C119.613 137.856 121.486 120.406 121.486 120.406C127.47 117.236 130.807 120.502 130.807 120.502C131.999 131.46 138.551 134.574 138.551 134.574Z" fill="#9FD0CC"/>
<path d="M125.262 147.094C125.974 147.126 126.678 147.166 127.39 147.206C127.286 146.117 127.182 145.029 127.086 143.94C127.062 143.676 127.462 143.588 127.486 143.852C127.806 147.246 128.126 150.648 128.446 154.042C128.47 154.306 128.07 154.394 128.046 154.13C127.838 151.961 127.638 149.791 127.43 147.622C126.702 147.582 125.974 147.55 125.246 147.51C124.974 147.494 124.998 147.078 125.262 147.094Z" fill="#4D817D"/>
<path d="M136.591 155.738H136.207C136.207 155.618 136.207 155.506 136.199 155.386C136.159 152.232 136.111 149.078 136.079 145.933C134.399 144.932 133.399 143.107 133.503 141.05C133.519 140.754 133.975 140.754 133.967 141.05C133.871 142.843 134.679 144.444 136.071 145.38C136.047 143.275 136.015 141.162 135.983 139.057C135.975 138.792 136.391 138.792 136.391 139.057C136.415 141.026 136.439 142.995 136.471 144.964L136.479 145.628C136.479 145.804 136.487 145.973 136.487 146.149C136.519 148.726 136.551 152.088 136.591 155.738Z" fill="#4D817D"/>
<path d="M131.919 105.349C131.919 105.349 124.566 113.402 126.598 105.662C126.598 105.662 129.879 103.476 131.919 105.349Z" fill="#FFA49C"/>
<path d="M130.815 120.51C130.815 120.51 131.303 109.456 134.663 106.43C134.663 106.43 133.783 105.51 131.919 105.35C131.919 105.35 129.27 111.865 128.774 119.382C128.766 119.382 129.126 121.191 130.815 120.51Z" fill="#9FD0CC"/>
<path d="M121.494 120.414C121.494 120.414 122.99 110.328 124.766 106.494C124.766 106.494 125.526 105.661 126.598 105.661C126.598 105.661 123.918 112.273 123.006 119.725C123.006 119.717 122.406 121.086 121.494 120.414Z" fill="#9FD0CC"/>
<path d="M133.343 98.7854C132.935 98.1531 132.759 97.3766 132.863 96.6322C132.967 95.8877 133.343 95.1833 133.911 94.687C132.847 94.7591 131.775 94.7431 130.743 94.4789C129.71 94.2148 128.718 93.6304 128.158 92.7259C127.59 91.8214 127.534 90.5646 128.174 89.7161C128.454 89.3479 128.87 89.0598 129.334 89.0357C129.814 89.0117 130.255 89.2679 130.663 89.508C131.895 90.2525 133.135 90.9889 134.367 91.7333C135.079 92.1576 135.807 92.5978 136.311 93.2622C136.815 93.9186 137.055 94.8551 136.671 95.5916C136.455 96.0078 136.087 96.304 135.727 96.6002C134.887 97.2645 134.175 98.121 133.343 98.7854Z" fill="#2F335B"/>
<path d="M133.311 98.5295C133.319 98.2493 133.583 98.0092 133.863 97.9932C134.143 97.9771 134.415 98.1613 134.543 98.4094C134.679 98.6575 134.679 98.9617 134.607 99.2339C134.527 99.506 134.367 99.7462 134.191 99.9623C133.919 100.282 133.583 100.563 133.175 100.651C132.767 100.739 132.287 100.587 132.087 100.218C132.631 99.7222 133.295 99.2579 133.311 98.5295Z" fill="#FFA49C"/>
<path d="M127.838 114.619L132.991 109.016L137.647 117.941L132.015 120.598C132.007 120.598 128.534 117.677 127.838 114.619Z" fill="#37538B"/>
<path d="M91.7142 10.6543C91.0182 10.6543 90.4501 11.2226 90.4501 11.919V68.3039H92.9864V11.919C92.9784 11.2226 92.4103 10.6543 91.7142 10.6543Z" fill="#716E93"/>
<path d="M103.196 0C102.499 0 101.931 0.568331 101.931 1.26474V68.2958H104.468V1.26474C104.468 0.568331 103.9 0 103.196 0Z" fill="#716E93"/>
<path d="M69.0397 134.182L68.3516 133.021L96.3067 116.34C97.1948 115.811 98.299 115.811 99.1871 116.356L126.574 133.029L125.87 134.182L98.483 117.508C98.0269 117.228 97.4589 117.228 96.9948 117.5L69.0397 134.182Z" fill="#668BD8"/>
<path d="M109.404 60.3789H84.5694C83.2333 60.3789 82.1532 61.4595 82.1532 62.7963V78.5175C82.1532 78.8937 82.2412 79.2619 82.4092 79.5981L87.5298 89.8841C87.9378 90.7086 88.7779 91.2209 89.69 91.2209H104.284C105.204 91.2209 106.036 90.7006 106.444 89.8841L111.564 79.5981C111.732 79.2619 111.82 78.8937 111.82 78.5175V62.7963C111.82 61.4595 110.732 60.3789 109.404 60.3789Z" fill="#37538B"/>
<path d="M90.066 63.125L84.8895 68.304V63.125H90.066Z" fill="#FFC700"/>
<path d="M102.011 63.125L85.4975 79.6466L84.8895 78.4379V74.2115L95.9707 63.125H102.011Z" fill="#FFC700"/>
<path d="M109.068 63.125V68.0078L89.466 87.6273L87.4578 83.5929L107.916 63.125H109.068Z" fill="#FFC700"/>
<path d="M109.068 73.9229V78.4375L107.564 81.4712L100.563 88.4753H94.5305L109.068 73.9229Z" fill="#FFC700"/>
<path d="M96.9148 122.391C89.938 122.391 85.5296 117.052 85.1855 110.232C85.1535 109.559 85.7056 108.991 86.3776 108.991C86.9697 108.991 87.4818 109.423 87.5458 110.008C88.0498 114.066 92.7304 117.204 96.9148 117.204C101.635 117.204 105.42 113.225 105.116 108.447C104.836 104.196 101.235 100.81 96.9788 100.778C96.9708 100.778 96.9628 100.778 96.9548 100.778C95.5147 100.77 94.3305 99.6575 94.3305 98.2167V90.0039H99.5231V95.8713C105.396 97.048 109.996 102.131 110.3 108.327C110.66 116.019 104.532 122.391 96.9148 122.391Z" fill="#37538B"/>
<path d="M126.566 133.029L125.862 134.182L103.572 120.614L98.475 117.508C98.219 117.348 97.9149 117.22 97.6189 117.18C97.4589 117.196 97.3069 117.204 97.1468 117.204C97.0668 117.212 96.9868 117.212 96.9068 117.212C96.3227 117.212 95.7307 117.148 95.1306 117.028L96.2907 116.332C97.1788 115.803 98.283 115.811 99.1711 116.348L99.7551 116.7L104.828 119.79L126.566 133.029Z" fill="#668BD8"/>
<path d="M123.806 136.664L74.7924 146.637C74.6723 146.661 74.5443 146.677 74.4243 146.693C74.1763 146.717 73.9363 146.717 73.7042 146.693C73.6482 146.685 73.5842 146.677 73.5282 146.669C73.2962 146.637 73.0722 146.581 72.8481 146.501C72.5761 146.405 72.3121 146.269 72.072 146.117C71.784 145.925 71.52 145.693 71.296 145.421C71.224 145.333 71.1519 145.237 71.0879 145.141C71.0159 145.045 70.9599 144.94 70.9039 144.836C70.7279 144.516 70.5919 144.156 70.5199 143.772C70.2718 142.611 69.4958 141.691 68.4956 141.218C68.4316 141.186 68.3676 141.162 68.3036 141.138C68.2476 141.114 68.1916 141.098 68.1356 141.074C67.6476 140.906 67.1195 140.834 66.5834 140.882C66.5034 140.89 66.4314 140.898 66.3514 140.914C66.2874 140.922 66.2314 140.938 66.1674 140.946L44.765 145.301C42.7728 145.709 41.4926 147.646 41.8927 149.639L54.4301 211.307C54.7341 212.804 56.1983 213.773 57.6944 213.468L136.167 197.499C136.255 197.483 136.343 197.459 136.431 197.435C137.687 197.051 138.511 195.818 138.367 194.505C138.359 194.417 138.343 194.329 138.327 194.241L127.062 138.825C126.766 137.32 125.302 136.359 123.806 136.664Z" fill="#F4AB19"/>
<path d="M130.719 141.05L80.857 144.965C80.729 144.973 80.609 144.981 80.489 144.973C80.241 144.965 80.0009 144.933 79.7769 144.885C79.7209 144.868 79.6649 144.86 79.6009 144.844C79.3769 144.78 79.1608 144.7 78.9528 144.588C78.6888 144.46 78.4488 144.292 78.2327 144.108C77.9687 143.884 77.7367 143.62 77.5447 143.324C77.4807 143.228 77.4247 143.123 77.3686 143.027C77.3126 142.923 77.2646 142.819 77.2246 142.707C77.0886 142.363 77.0006 141.995 76.9766 141.603C76.8726 140.418 76.2085 139.417 75.2804 138.825C75.2244 138.785 75.1604 138.753 75.0964 138.721C75.0404 138.689 74.9924 138.665 74.9364 138.641C74.4723 138.409 73.9603 138.281 73.4242 138.265C73.3442 138.265 73.2642 138.265 73.1922 138.265C73.1282 138.265 73.0642 138.273 73.0082 138.273L51.2377 139.978C49.2135 140.138 47.7013 141.907 47.8613 143.932L52.7739 206.664C52.8939 208.185 54.2221 209.322 55.7502 209.21L135.583 202.95C135.671 202.942 135.767 202.934 135.847 202.918C137.143 202.686 138.103 201.566 138.127 200.245C138.127 200.157 138.127 200.069 138.119 199.981L133.703 143.604C133.575 142.067 132.239 140.93 130.719 141.05Z" fill="#FFC136"/>
<path d="M139.184 134.703C138.976 134.495 138.743 134.31 138.487 134.158C137.927 133.822 137.279 133.622 136.583 133.622H114.717C114.021 133.622 113.365 133.814 112.813 134.158C112.557 134.31 112.325 134.495 112.117 134.703C111.452 135.367 111.036 136.288 111.036 137.304C111.036 137.616 110.996 137.921 110.924 138.209C110.876 138.377 110.82 138.545 110.756 138.713C110.652 138.953 110.532 139.177 110.38 139.385C110.34 139.441 110.3 139.498 110.26 139.546C110.172 139.658 110.076 139.762 109.98 139.866C109.78 140.066 109.548 140.25 109.3 140.402C109.1 140.522 108.892 140.626 108.668 140.706C108.612 140.73 108.556 140.746 108.5 140.762C108.276 140.834 108.044 140.882 107.796 140.906C107.676 140.914 107.548 140.922 107.428 140.922H57.4144C57.2224 140.922 57.0384 140.946 56.8543 140.978C56.7663 140.994 56.6783 141.018 56.5903 141.042C56.5023 141.066 56.4223 141.098 56.3343 141.138C56.2943 141.154 56.2543 141.178 56.2143 141.194C56.1343 141.235 56.0543 141.275 55.9822 141.323C55.8702 141.395 55.7582 141.475 55.6542 141.555C55.5902 141.611 55.5182 141.675 55.4622 141.731C54.9581 142.235 54.6541 142.923 54.6541 143.684V200.237C54.6541 201.766 55.8942 203.007 57.4224 203.007H137.503C137.591 203.007 137.687 202.998 137.775 202.99C139.088 202.862 140.136 201.822 140.256 200.509C140.264 200.421 140.272 200.333 140.272 200.245V137.32C140.264 136.288 139.848 135.367 139.184 134.703Z" fill="#E9A621"/>
<path d="M136.335 132.478H58.5826V151.072H136.335V132.478Z" fill="#F1DEE1"/>
<path d="M136.335 136.808H58.5826V155.402H136.335V136.808Z" fill="white"/>
<path d="M137.495 140.922H87.4818C87.3537 140.922 87.2337 140.914 87.1137 140.906C86.8657 140.882 86.6337 140.834 86.4096 140.762C86.3536 140.746 86.2976 140.722 86.2416 140.706C86.0256 140.626 85.8096 140.522 85.6096 140.402C85.3615 140.25 85.1295 140.074 84.9295 139.866C84.6815 139.618 84.4734 139.337 84.3054 139.033C84.2494 138.929 84.2014 138.825 84.1534 138.721C84.1054 138.609 84.0654 138.505 84.0334 138.385C83.9214 138.033 83.8654 137.656 83.8734 137.264C83.8574 136.08 83.2813 135.023 82.3932 134.359C82.3372 134.318 82.2812 134.278 82.2172 134.238C82.1692 134.206 82.1212 134.174 82.0652 134.142C81.6251 133.878 81.1211 133.702 80.585 133.646C80.505 133.638 80.425 133.63 80.353 133.63C80.289 133.63 80.225 133.622 80.161 133.622H58.3265C56.2943 133.622 54.6541 135.271 54.6541 137.296V200.221C54.6541 201.75 55.8942 202.99 57.4224 202.99H137.503C137.591 202.99 137.687 202.982 137.775 202.974C139.088 202.846 140.136 201.806 140.256 200.493C140.264 200.405 140.272 200.317 140.272 200.229V143.684C140.256 142.155 139.024 140.922 137.495 140.922Z" fill="#FFC700"/>
<path d="M108.724 148.071H127.742C130.263 148.071 130.271 144.148 127.742 144.148H108.724C106.196 144.148 106.196 148.071 108.724 148.071Z" fill="#FFE5AD"/>
<path d="M135.567 178.399L135.239 184.883L135.215 185.387L130.087 286.062C129.926 289.152 127.382 291.585 124.278 291.585H55.0701C51.9818 291.585 49.4295 289.168 49.2615 286.086L43.5409 181.145V181.137L43.3888 178.399H135.567Z" fill="#2F5FA4"/>
<path d="M147.881 178.399L147.528 185.387L142.4 286.062C142.24 289.152 139.696 291.585 136.591 291.585H67.3835C64.2952 291.585 61.7429 289.168 61.5749 286.086L55.8542 181.145L55.7022 178.407H147.881V178.399Z" fill="#5580C8"/>
<path opacity="0.5" d="M147.881 178.399L147.528 185.387L135.239 184.883L43.5409 181.145V181.137L43.3969 178.399H147.881Z" fill="#2F5FA4"/>
<path d="M93.7785 231.414C96.4188 226.484 99.3311 221.705 102.499 217.102C104.268 214.541 106.364 211.859 109.388 211.131C105.004 207.841 98.531 207.737 94.0185 210.842C91.7302 212.419 89.9861 214.701 88.6659 217.15C87.3458 219.608 86.4257 222.249 85.5135 224.875C88.2019 227.172 90.6181 229.862 93.7785 231.414Z" fill="white"/>
<path d="M103.332 219.159C104.404 220.864 105.476 222.577 106.54 224.282C105.508 225.235 104.564 226.235 103.524 227.188C107.38 227.116 111.404 227.924 114.901 229.557C116.045 225.507 117.077 221.416 118.221 217.366C117.069 218.086 116.013 218.887 114.869 219.607C113.589 217.022 112.012 214.5 110.196 212.251C107.444 213.684 105.02 216.565 103.332 219.159Z" fill="#CCDEFB"/>
<path d="M111.228 233.095C113.901 238.01 116.293 243.069 118.405 248.248C119.581 251.13 120.669 254.356 119.613 257.285C124.766 255.42 128.406 250.073 128.286 244.59C128.222 241.804 127.278 239.099 125.95 236.649C124.622 234.2 122.918 231.983 121.222 229.773C117.837 230.75 114.261 231.294 111.228 233.095Z" fill="white"/>
<path d="M116.181 248.184C114.165 248.144 112.149 248.096 110.14 248.056C109.908 246.663 109.596 245.326 109.364 243.941C107.308 247.207 104.42 250.129 101.139 252.162C103.892 255.34 106.748 258.446 109.5 261.624C109.524 260.263 109.444 258.942 109.468 257.589C112.333 257.942 115.301 258.006 118.173 257.717C118.501 254.628 117.429 251.018 116.181 248.184Z" fill="#CCDEFB"/>
<path d="M100.723 247.271C95.1386 247.391 89.538 247.199 83.9774 246.687C80.881 246.407 77.5127 245.895 75.3924 243.613C74.6803 249.048 77.7607 254.748 82.6812 257.149C85.1855 258.374 88.0178 258.774 90.8021 258.718C93.5864 258.662 96.3388 258.166 99.0751 257.677C99.7711 254.219 100.923 250.793 100.723 247.271Z" fill="white"/>
<path d="M85.1295 245.039C86.0896 243.269 87.0577 241.492 88.0178 239.723C89.362 240.156 90.6901 240.492 92.0343 240.924C90.0741 237.594 88.8099 233.696 88.5139 229.846C84.4254 230.83 80.361 231.943 76.2725 232.935C77.4647 233.584 78.6728 234.112 79.8729 234.761C78.2487 237.146 76.8246 239.755 75.7605 242.437C78.3368 244.134 82.0332 244.846 85.1295 245.039Z" fill="#CCDEFB"/>
<path d="M136.559 172.276H42.4047C40.3565 172.276 38.7003 173.933 38.7003 175.983C38.7003 178.032 40.3565 179.689 42.4047 179.689H136.559C138.607 179.689 140.264 178.032 140.264 175.983C140.264 173.941 138.599 172.276 136.559 172.276Z" fill="#5580C8"/>
<path d="M148.865 172.276H54.7181C52.6699 172.276 51.0137 173.933 51.0137 175.983C51.0137 178.032 52.6699 179.689 54.7181 179.689H148.865C150.913 179.689 152.569 178.032 152.569 175.983C152.569 173.941 150.913 172.276 148.865 172.276Z" fill="#668BD8"/>
<path d="M136.919 176.799H144.184C146.208 176.799 146.216 173.646 144.184 173.646H136.919C134.887 173.646 134.887 176.799 136.919 176.799Z" fill="white"/>
<path d="M110.26 105.293C110.676 106.47 110.932 107.935 110.98 109.168C110.98 109.168 112.581 111.625 109.428 111.889C108.388 111.641 106.636 110.961 105.876 110.176C104.972 109.256 104.396 108.007 104.228 106.71C104.196 106.43 104.268 106.174 104.412 105.974C104.676 105.598 105.172 105.414 105.644 105.606L106.876 106.102L109.692 107.255C109.7 106.886 109.676 106.126 109.66 105.406C109.636 105.045 110.14 104.957 110.26 105.293Z" fill="#FFA49C"/>
<path d="M127.838 114.619C127.838 114.619 124.038 117.22 121.35 118.389C121.35 118.389 114.493 113.602 109.54 107.471L107.948 109.16C107.948 109.16 113.541 119.222 120.325 124.641C120.325 124.641 128.294 122.568 131.447 120.054C131.447 120.046 130.727 115.74 127.838 114.619Z" fill="#FFA49C"/>
<path d="M120.685 117.477C121.398 117.981 121.998 118.598 122.47 119.334C122.606 119.542 122.302 119.798 122.158 119.582C121.694 118.878 121.134 118.285 120.445 117.797C120.245 117.653 120.477 117.333 120.685 117.477Z" fill="#C25F6E"/>
<path d="M102.515 114.971C101.987 113.978 101.979 112.721 102.499 111.721C103.011 110.72 104.036 110 105.156 109.848C105.372 110.44 105.604 111.112 105.676 111.745C105.748 112.369 105.66 113.034 105.316 113.562C105.004 114.034 104.492 114.362 103.956 114.554C103.42 114.747 103.084 114.891 102.515 114.971Z" fill="#FFA49C"/>
<path d="M381.475 284.31C381.715 285.774 381.947 287.239 382.163 288.704C382.283 289.513 382.395 290.377 382.027 291.106C381.683 291.786 380.963 292.21 380.226 292.386C379.49 292.562 378.714 292.522 377.962 292.482C377.562 292.458 377.146 292.434 376.778 292.266C376.41 292.098 376.098 291.746 376.106 291.346C376.106 290.881 376.498 290.521 376.834 290.193C378.298 288.744 379.082 286.631 378.93 284.582C379.65 284.526 380.755 284.366 381.475 284.31Z" fill="#1B1B30"/>
<path d="M373.562 284.31C373.802 285.774 374.034 287.239 374.25 288.704C374.37 289.513 374.482 290.377 374.114 291.106C373.77 291.786 373.05 292.21 372.314 292.386C371.577 292.562 370.801 292.522 370.041 292.482C369.641 292.458 369.225 292.434 368.857 292.266C368.489 292.098 368.177 291.746 368.185 291.346C368.185 290.881 368.577 290.521 368.913 290.193C370.377 288.744 371.161 286.631 371.009 284.582C371.737 284.526 372.842 284.366 373.562 284.31Z" fill="#1B1B30"/>
<path d="M366.865 210.938C366.865 210.938 363.945 218.903 370.937 218.159H383.611C383.611 218.159 389.211 220.16 387.635 211.275C387.627 211.275 377.85 205.671 366.865 210.938Z" fill="#FFA49C"/>
<path d="M382.099 222.729C381.923 232.351 378.794 242.573 377.17 251.234C376.826 253.067 376.306 254.908 376.386 256.797C377.146 275.312 374.202 284.622 374.13 285.726C373.618 285.926 373.05 286.038 372.458 286.038C371.833 286.038 371.249 285.918 370.721 285.702C370.465 283.869 370.289 281.716 370.169 279.443C369.673 270.021 370.161 258.47 370.161 258.47C366.777 236.481 370.161 222.738 370.161 222.738H378.098H382.099V222.729Z" fill="#3E3E63"/>
<path d="M385.923 234.064C385.843 238.787 383.971 250.41 384.235 256.845C384.851 271.79 382.131 284.605 382.067 285.718C381.547 285.918 380.979 286.03 380.378 286.03C379.762 286.03 379.186 285.918 378.666 285.702C378.41 283.861 378.234 281.708 378.114 279.418C377.618 269.997 378.106 258.454 378.106 258.454C377.714 255.909 377.41 253.499 377.186 251.226C375.458 233.872 378.106 222.721 378.106 222.721L383.595 221.145C386.451 225.363 387.307 230.726 385.923 234.064Z" fill="#3E3E63"/>
<path d="M387.627 211.275C387.627 211.275 386.291 212.387 384.259 212.003C384.083 212.996 383.907 213.996 383.787 214.997C383.491 217.494 384.587 222.874 385.771 225.091C383.475 226.836 374.386 227.94 369.697 224.17C369.713 224.106 372.242 217.686 371.906 212.067C371.906 212.067 371.89 212.067 371.858 212.067C371.505 212.059 368.337 211.995 366.849 210.939L367.737 206.56L367.961 205.439C368.281 204.271 368.865 203.19 369.777 202.398C370.977 201.357 372.586 200.941 374.146 200.677C377.106 200.18 380.13 200.933 383.115 201.325C383.115 201.325 385.691 201.997 386.643 205.439C386.643 205.439 386.643 205.439 386.651 205.447C386.651 205.455 386.659 205.463 386.659 205.471C386.779 205.816 387.691 208.801 387.627 211.275Z" fill="#94D0BF"/>
<path d="M374.97 188.942C373.954 191.224 373.298 193.665 373.034 196.147C372.978 196.659 372.962 197.291 373.386 197.587C374.058 198.068 375.29 198.604 375.77 198.396C377.482 197.643 378.13 195.618 379.298 194.153C378.274 192.144 376.754 190.327 374.97 188.942Z" fill="#FFA49C"/>
<path d="M375.578 192.928C375.802 192.76 376.026 192.592 376.29 192.512C376.554 192.432 376.866 192.448 377.074 192.632C377.386 192.912 377.33 193.417 377.162 193.809C376.89 194.449 376.378 194.985 375.762 195.298C375.314 196.146 375.018 197.123 374.586 197.979C372.45 202.222 373.298 206.504 374.762 207.329C376.346 208.225 380.691 208.609 383.147 207.609C384.779 206.944 386.179 205.431 386.227 203.662C386.299 201.197 383.843 196.923 384.291 194.497C384.571 192.984 384.875 191.792 384.955 190.255C385.035 188.582 384.627 187.253 383.139 186.492C381.699 185.756 380.074 185.292 378.466 185.484C376.858 185.676 375.29 186.605 374.61 188.069C373.938 189.534 374.218 192.064 375.578 192.928Z" fill="#8A4632"/>
<path d="M381.323 232.559C379.778 233.944 377.618 234.216 375.778 233.263C375.546 233.143 375.346 233.495 375.57 233.615C376.474 234.088 377.45 234.288 378.402 234.224C378.346 241.284 377.65 250.345 375.682 257.149C375.562 257.557 375.442 257.966 375.306 258.366C375.218 258.614 375.61 258.718 375.698 258.47C376.13 257.237 376.442 255.957 376.738 254.684C377.53 251.298 378.05 247.848 378.386 244.39C378.65 241.612 378.786 236.961 378.81 234.176C379.818 234.032 380.795 233.583 381.603 232.847C381.803 232.671 381.515 232.383 381.323 232.559Z" fill="#1B1B30"/>
<path d="M383.987 215.045C384.323 212.988 384.699 210.698 384.339 208.625C384.291 208.369 383.907 208.481 383.947 208.729C384.291 210.722 383.907 212.956 383.595 214.933C383.555 215.197 383.947 215.301 383.987 215.045Z" fill="#528878"/>
<path d="M370.353 222.786C371.938 218.648 372.506 213.917 372.306 209.522C372.298 209.266 371.889 209.258 371.897 209.522C372.098 213.893 371.537 218.568 369.961 222.682C369.865 222.922 370.257 223.026 370.353 222.786Z" fill="#528878"/>
<path opacity="0.5" d="M163.618 316C180.233 316 193.702 315.462 193.702 314.799C193.702 314.136 180.233 313.599 163.618 313.599C147.004 313.599 133.535 314.136 133.535 314.799C133.535 315.462 147.004 316 163.618 316Z" fill="#7DA0B6"/>
<path d="M180.932 305.626C181.34 307.835 182.18 309.948 183.38 311.782C183.621 312.15 183.877 312.51 184.045 312.926C184.205 313.342 184.269 313.831 184.101 314.239C183.821 314.943 183.02 315.192 182.316 315.312C180.092 315.68 177.796 315.576 175.604 315.007C175.18 314.895 174.708 314.719 174.548 314.279C174.355 313.751 174.732 313.198 175.044 312.75C176.26 310.989 176.868 308.748 176.724 306.555C178.228 306.675 179.516 306.234 180.932 305.626Z" fill="#63423B"/>
<path d="M180.892 194.073C180.188 194.633 179.796 195.49 179.5 196.338C179.204 197.187 178.972 198.067 178.5 198.836C178.028 199.596 177.252 200.245 176.356 200.277C176.852 199.684 177.02 198.932 177.204 198.188C177.388 197.435 177.5 196.667 177.74 195.938C177.988 195.21 178.38 194.497 179.004 194.041C179.628 193.585 180.236 193.673 180.892 194.073Z" fill="#8A4632"/>
<path d="M177.26 203.823C177.308 204.055 177.404 204.407 177.46 204.639C176.852 205.712 175.212 207.521 171.651 207.337C169.987 206.857 169.907 205.384 170.011 204.527C170.235 204.527 170.403 204.527 170.547 204.527C170.547 204.519 170.539 204.511 170.531 204.511C170.555 204.479 170.587 204.423 170.619 204.335C170.659 204.255 170.699 204.143 170.747 204.023C171.059 203.151 171.555 201.446 171.651 201.029C172.467 200.845 173.267 200.605 174.035 200.285C174.459 200.109 174.916 199.733 175.372 199.276C175.412 199.236 175.452 199.204 175.484 199.164C176.228 198.42 176.964 197.531 177.548 197.083C177.284 198.524 176.948 202.358 177.252 203.791C177.26 203.799 177.26 203.815 177.26 203.823Z" fill="#FFA49C"/>
<path d="M157.402 210.243L150.697 214.421L135.999 206.072L134.519 209.186L149.345 222.394C150.529 223.194 152.017 223.386 153.361 222.922L160.282 220.537C160.282 220.545 164.33 212.132 157.402 210.243Z" fill="#FFA49C"/>
<path d="M170.691 215.005L160.282 220.544C158.73 217.318 157.746 213.812 157.394 210.242C163.562 206.224 168.843 204.743 168.843 204.743L170.691 215.005Z" fill="#364F89"/>
<path d="M157.546 304.946L156.577 313.046C156.609 313.759 156.137 314.375 155.505 314.439C153.241 314.687 147.921 315.119 142.4 314.447C141.864 314.383 141.64 313.679 142 313.23C142.752 312.318 143.792 311.669 144.856 311.261C146.192 310.741 147.2 310.749 148.521 310.181C150.321 309.404 153.065 307.507 153.345 305.386C154.633 304.857 156.161 304.954 157.546 304.946Z" fill="#63423B"/>
<path d="M168.739 245.19L168.795 246.807C168.827 246.159 168.811 245.615 168.739 245.19Z" fill="#311649"/>
<path d="M182.748 238.915L182.668 239.051C182.7 239.043 182.724 239.035 182.748 239.019V238.915Z" fill="#703CD4"/>
<path d="M189.317 219.848L185.933 219.24C185.765 219.6 184.749 233.432 184.749 233.432C180.9 234.897 176.516 235.721 171.867 235.721C167.187 235.721 162.778 234.881 158.914 233.4L159.69 231.295L160.274 226.404L160.818 222.049C161.186 219.12 161.866 216.238 162.906 213.468C164.25 209.89 166.419 205.832 169.587 204.503C169.627 204.487 169.675 204.463 169.715 204.447L169.691 204.423C170.027 204.399 170.275 204.375 170.275 204.375L171.107 204.847H171.259L177.684 204.479C177.684 204.479 178.06 204.455 178.596 204.463C179.228 204.463 180.092 204.503 180.812 204.647C180.82 204.647 180.828 204.647 180.836 204.647C187.037 205.328 191.989 208.225 191.989 208.225C192.189 212.236 191.261 216.318 189.317 219.848Z" fill="#364F89"/>
<path d="M185.453 230.367C185.453 230.399 185.509 304.842 185.509 307.636C183.228 308.588 180.556 309.132 177.7 309.132C176.124 309.132 174.603 308.964 173.171 308.652L170.859 245.191L159.778 309.485C159.106 309.549 158.418 309.581 157.722 309.581C154.457 309.581 151.441 308.876 148.969 307.66C149.385 304.458 159.082 230.687 159.09 230.655C159.09 230.655 164.514 223.731 164.818 213.261C164.818 213.261 165.122 208.146 167.843 204.816C167.843 204.816 168.691 203.903 169.707 204.431C169.707 204.431 166.387 209.322 166.515 213.301L172.939 213.517C175.188 207.529 178.364 204.191 178.364 204.191C179.06 203.967 179.612 204.023 180.012 204.159C180.516 204.327 180.772 204.624 180.772 204.624C176.86 207.657 174.339 214.597 174.267 214.797C174.267 214.797 176.244 226.148 180.38 230.062C182.58 230.423 183.404 229.79 185.453 230.367Z" fill="#FFC445"/>
<path d="M178.58 204.447L178.124 204.896C175.14 207.825 172.971 209.25 171.507 209.25C170.899 209.25 170.387 209.01 170.019 208.562C169.147 207.481 169.403 205.424 169.579 204.487C169.619 204.471 169.667 204.447 169.707 204.431L169.683 204.407C170.019 204.383 170.267 204.359 170.267 204.359L171.099 204.832H171.251L177.676 204.463C177.668 204.463 178.044 204.439 178.58 204.447Z" fill="white"/>
<path d="M177.668 204.439C168.099 213.837 170.235 204.423 170.251 204.335C170.771 204.327 171.067 204.343 171.067 204.343L172.387 204.359H172.539L177.284 204.431C177.292 204.439 177.42 204.431 177.668 204.439Z" fill="#FFA49C"/>
<path d="M171.139 244.895C171.075 243.142 171.019 241.381 170.955 239.62C170.947 239.26 170.387 239.26 170.395 239.62C170.451 241.237 170.507 242.854 170.563 244.463C169.987 244.03 169.411 243.606 168.835 243.174C168.723 243.094 168.619 243.014 168.507 242.926C167.819 242.413 167.139 241.901 166.451 241.389C166.163 241.173 165.883 241.653 166.171 241.869C166.915 242.421 167.659 242.982 168.395 243.534C167.123 250.482 165.859 262.761 164.586 269.717C162.442 281.436 160.578 291.706 158.434 303.425C157.946 306.106 158.234 304.602 157.746 307.283C157.698 307.515 158.058 307.619 158.106 307.379C159.45 300.023 159.738 298.31 161.082 290.946C163.226 279.227 165.37 262.169 167.515 250.45C167.923 248.225 168.331 245.999 168.731 243.774C169.347 244.238 169.971 244.703 170.595 245.159C170.715 248.601 170.843 252.035 170.955 255.469C170.963 255.829 171.523 255.829 171.515 255.469C171.403 252.179 171.283 248.881 171.163 245.583C171.163 245.367 171.147 245.135 171.139 244.895Z" fill="#D19722"/>
<path d="M182.476 231.687C182.476 239.684 182.476 246.976 182.476 254.973C182.476 267.716 182.476 285.791 182.476 298.534C182.476 301.456 182.476 303.305 182.476 306.226C182.476 306.587 183.036 306.587 183.036 306.226C183.036 298.23 183.036 291.298 183.036 283.301C183.036 270.558 183.036 252.483 183.036 239.74C183.036 236.818 183.036 234.609 183.036 231.695C183.028 231.335 182.476 231.335 182.476 231.687Z" fill="#D19722"/>
<path d="M186.269 230.815C186.221 230.895 186.149 230.967 186.085 231.015C185.757 231.255 185.349 231.287 184.973 231.407C183.997 231.736 183.268 232.744 183.148 233.937C183.1 234.417 183.1 235.009 182.724 235.194C182.436 235.33 182.1 235.122 181.812 234.929C181.188 234.473 180.564 233.937 180.132 233.232C179.692 232.528 179.46 231.631 179.636 230.855C179.788 230.207 180.204 229.718 180.668 229.35C181.932 228.342 183.644 228.069 185.221 228.622L186.269 230.815Z" fill="#FFA49C"/>
<path d="M203.359 222.385C202.839 222.906 193.846 230.43 184.957 231.407L184.821 231.495L184.741 231.15L184.221 228.861C184.221 228.861 184.413 228.733 184.741 228.485C186.437 227.26 191.765 223.282 193.198 220.536L189.317 219.84C187.773 214.237 190.813 210.602 191.965 208.209C194.99 209.498 199.854 211.827 202.839 214.357C204.887 216.11 205.615 220.128 203.359 222.385Z" fill="#FFA49C"/>
<path d="M192.309 222.146C193.27 220.585 194.702 219.464 196.438 218.904C196.718 218.816 196.598 218.376 196.318 218.464C194.462 219.056 192.934 220.257 191.917 221.914C191.765 222.17 192.157 222.394 192.309 222.146Z" fill="#C25F6E"/>
<path d="M176.708 198.924C176.708 198.924 175.708 203.711 170.627 204.327C170.667 204.247 170.707 204.135 170.755 204.015C171.067 203.142 171.563 201.437 171.659 201.021C172.475 200.837 173.275 200.597 174.043 200.277C174.467 200.101 174.924 199.724 175.38 199.268L176.708 198.924Z" fill="#DC6478"/>
<path d="M186.037 216.006C185.949 216.935 185.853 217.855 185.765 218.784C185.285 218.175 184.789 217.583 184.269 217.015C184.069 216.799 183.748 217.119 183.949 217.335C184.565 217.999 185.149 218.696 185.701 219.424C185.701 219.424 185.709 219.424 185.709 219.432C185.533 221.265 185.349 223.098 185.173 224.931C185.141 225.22 185.597 225.22 185.629 224.931C185.917 221.962 186.213 218.992 186.501 216.014C186.525 215.718 186.069 215.718 186.037 216.006Z" fill="#1B3466"/>
<path d="M161.034 222.041C161.274 219.4 161.866 216.734 162.842 214.269C162.946 213.997 162.514 213.877 162.402 214.149C161.41 216.654 160.818 219.36 160.578 222.041C160.554 222.33 161.01 222.33 161.034 222.041Z" fill="#1B3466"/>
<path d="M138.151 211.004L132.959 211.868L130.863 201.574L136.743 200.157L138.151 211.004Z" fill="#5D5E8B"/>
<path d="M139.608 210.763L134.415 211.62L132.295 201.214L138.175 199.797L139.608 210.763Z" fill="#343256"/>
<path d="M137.983 205.432C138.167 206.529 137.471 207.561 136.431 207.737C135.391 207.914 134.407 207.161 134.223 206.065C134.039 204.968 134.735 203.935 135.775 203.759C136.815 203.583 137.807 204.328 137.983 205.432Z" fill="#5D5E8B"/>
<path d="M136.903 201.173C135.583 196.162 134.951 191.055 134.999 185.876C134.999 185.58 134.551 185.58 134.543 185.876C134.495 191.103 135.135 196.242 136.463 201.293C136.535 201.582 136.975 201.461 136.903 201.173Z" fill="#343256"/>
<path d="M140.792 206.665C140.696 205.8 140.328 204.928 139.624 204.415C139.136 204.063 138.527 203.911 137.927 203.815C136.871 203.647 135.799 203.631 134.743 203.767C135.479 204.872 136.799 205.576 138.127 205.56C137.743 206.353 137.847 207.361 138.383 208.066C138.735 208.53 139.704 209.242 140.336 208.962C141.008 208.666 140.856 207.265 140.792 206.665Z" fill="#FFA49C"/>
<path d="M131.575 204.728C130.839 206.601 131.367 208.906 132.839 210.275C133.247 209.594 133.663 208.898 133.863 208.13C134.063 207.361 134.063 206.521 133.727 205.8C133.383 205.096 132.367 204.744 131.575 204.728Z" fill="#FFA49C"/>
<path d="M153.177 212.804C152.329 213.276 151.481 213.749 150.633 214.221C150.193 213.909 149.737 213.629 149.249 213.38C149.049 213.284 148.873 213.58 149.073 213.685C150.273 214.285 151.321 215.077 152.217 216.078C152.369 216.246 152.617 215.998 152.465 215.83C152.001 215.318 151.497 214.853 150.953 214.445C151.753 213.997 152.553 213.556 153.353 213.108C153.553 212.996 153.377 212.7 153.177 212.804Z" fill="#C25F6E"/>
<path d="M172.755 189.183C171.907 190.455 171.707 192.136 172.227 193.569C172.723 192.681 173.211 191.776 173.707 190.888C173.859 190.615 174.019 190.319 173.979 190.007C173.947 189.719 173.739 189.471 173.491 189.319C173.251 189.159 173.035 189.255 172.755 189.183Z" fill="#8A4632"/>
<path d="M177.892 197.659C177.852 197.739 177.812 197.819 177.772 197.899C177.028 199.348 176.036 200.749 174.579 201.477C173.283 202.118 171.667 202.134 170.419 201.397C169.171 200.661 168.387 199.164 168.611 197.731C168.763 196.771 169.323 195.914 169.955 195.178C170.595 194.441 171.323 193.785 171.915 193.008C172.507 192.232 173.131 191.103 173.099 190.127L173.227 190.103C175.604 189.614 177.932 190.127 179.676 191.832C179.404 193.857 178.796 195.834 177.892 197.659Z" fill="#FFA49C"/>
<path d="M178.524 196.026C178.076 195.386 177.876 194.577 177.98 193.801C178.084 193.024 178.5 192.296 179.108 191.807C178.028 191.823 176.892 191.895 175.836 191.695C174.78 191.487 173.739 191.055 172.979 190.295C172.219 189.534 171.763 188.421 171.963 187.357C173.147 186.989 174.211 186.492 175.452 186.436C176.692 186.38 177.996 186.676 178.924 187.493C179.852 188.317 180.3 189.742 179.764 190.863C180.204 191.063 180.756 191.343 181.108 191.671C181.46 192 181.708 192.472 181.644 192.952C181.572 193.504 181.116 193.913 180.692 194.281C179.98 194.889 179.244 195.418 178.524 196.026Z" fill="#8A4632"/>
<path d="M178.276 196.034C178.452 195.858 178.628 195.674 178.836 195.546C179.052 195.418 179.308 195.338 179.548 195.394C179.996 195.482 180.268 195.978 180.244 196.435C180.228 196.891 179.988 197.299 179.716 197.667C179.508 197.956 179.284 198.228 178.996 198.428C178.708 198.628 178.356 198.756 178.004 198.708C177.66 198.668 177.324 198.428 177.22 198.1C177.692 197.435 178.092 196.811 178.276 196.034Z" fill="#FFA49C"/>
<path d="M173.291 197.163C172.019 196.851 171.123 196.114 170.675 195.674C170.523 195.522 170.251 195.578 170.187 195.77C168.979 199.396 171.955 198.316 173.355 197.643C173.579 197.531 173.539 197.219 173.291 197.163Z" fill="white"/>
<path d="M172.163 195.811C172.155 195.851 172.035 195.851 171.891 195.771C171.739 195.691 171.563 195.53 171.451 195.266C171.451 195.266 171.451 195.25 171.443 195.25C171.379 195.082 171.371 194.93 171.387 194.794C171.403 194.602 171.483 194.45 171.547 194.394C171.579 194.362 171.611 194.346 171.627 194.362C171.635 194.37 171.643 194.378 171.651 194.386C171.667 194.442 171.667 194.562 171.675 194.714C171.683 194.826 171.707 194.954 171.747 195.082C171.747 195.098 171.755 195.114 171.763 195.13C171.835 195.33 171.955 195.482 172.043 195.594C172.131 195.699 172.187 195.763 172.163 195.811Z" fill="#DC6478"/>
<path opacity="0.5" d="M32.3796 303.512C50.2624 303.512 64.7592 302.932 64.7592 302.216C64.7592 301.5 50.2624 300.919 32.3796 300.919C14.4968 300.919 0 301.5 0 302.216C0 302.932 14.4968 303.512 32.3796 303.512Z" fill="#7DA0B6"/>
<path d="M19.3782 184.9C20.0502 186.285 20.7223 187.67 21.3944 189.054C21.8664 190.023 22.3945 191.056 23.3626 191.528C24.2507 191.968 25.3948 191.792 26.1149 191.12C24.7068 190.231 23.5466 189.046 22.7545 187.59C22.3785 186.909 22.0825 186.165 21.5704 185.58C21.0584 184.988 20.1303 184.676 19.3782 184.9Z" fill="#C04056"/>
<path d="M29.4673 195.819C27.5311 196.299 25.5148 196.411 23.5466 196.131C23.3946 195.971 23.2346 195.803 23.0746 195.618C23.1466 195.386 23.2186 195.154 23.2746 194.914C23.4746 194.138 23.5626 193.337 23.5466 192.545V192.489C23.5306 191.984 23.4826 191.472 23.3866 190.968C23.3386 190.728 23.2906 190.495 23.2266 190.263C23.1386 189.951 23.0426 189.639 22.9226 189.327C22.7705 188.943 22.5945 188.566 22.3945 188.214C22.3145 188.062 22.2265 187.91 22.1305 187.758C22.2025 187.75 22.2745 187.75 22.3385 187.742C22.6745 187.718 23.0186 187.718 23.3626 187.734C24.0507 187.766 24.7468 187.878 25.4028 188.062C26.771 188.454 27.9791 189.191 28.6832 190.255C28.6352 190.752 28.6192 191.248 28.6352 191.752C28.6432 191.976 28.6512 192.192 28.6752 192.409C28.6992 192.689 28.7312 192.977 28.7792 193.257C28.7952 193.361 28.8112 193.457 28.8272 193.561C28.8672 193.785 28.9152 194.017 28.9712 194.242C29.0432 194.546 29.1313 194.85 29.2273 195.154C29.2993 195.354 29.3793 195.586 29.4673 195.819Z" fill="#FFA49C"/>
<path d="M27.4431 183.523C28.2031 181.754 27.8271 179.56 26.523 178.144C25.6269 178.528 24.7468 179.048 24.0587 179.728C25.2908 181.129 26.2109 182.13 27.4431 183.523Z" fill="#C04056"/>
<path d="M28.9632 194.209C24.9948 193.289 23.1626 188.694 23.1626 188.694L25.3948 188.046C26.763 188.438 27.9711 189.175 28.6832 190.239C28.6352 190.735 28.6192 191.232 28.6352 191.736C28.6432 191.96 28.6512 192.176 28.6752 192.392C28.7072 192.673 28.7392 192.961 28.7792 193.241C28.7952 193.337 28.8112 193.441 28.8272 193.537C28.8672 193.761 28.9152 193.985 28.9632 194.209Z" fill="#C25F6E"/>
<path d="M27.243 179.473C27.299 181.634 28.0751 183.771 29.4273 185.468C30.1954 186.429 31.1795 187.341 31.2995 188.566C31.4595 190.175 29.8913 191.576 28.2832 191.688C26.675 191.8 25.1388 190.919 23.9707 189.807C21.8264 187.765 20.5703 184.836 20.5623 181.874C22.3465 180.489 24.9868 179.545 27.243 179.473Z" fill="#FFA49C"/>
<path d="M26.971 187.525C28.0831 187.213 28.8512 186.541 29.2353 186.133C29.3633 185.997 29.6113 186.037 29.6673 186.205C30.8354 189.367 28.1791 188.502 26.923 187.95C26.723 187.862 26.755 187.59 26.971 187.525Z" fill="white"/>
<path d="M27.9231 186.301C27.9311 186.341 28.0351 186.333 28.1631 186.261C28.2912 186.189 28.4432 186.044 28.5392 185.804C28.5392 185.804 28.5392 185.796 28.5472 185.788C28.5952 185.636 28.6032 185.5 28.5872 185.388C28.5632 185.22 28.4912 185.092 28.4352 185.036C28.4032 185.004 28.3792 184.996 28.3632 185.012C28.3552 185.02 28.3472 185.028 28.3392 185.036C28.3232 185.084 28.3312 185.196 28.3312 185.324C28.3232 185.428 28.3152 185.532 28.2752 185.652C28.2752 185.668 28.2672 185.676 28.2672 185.692C28.2112 185.868 28.1071 186.012 28.0351 186.109C27.9551 186.205 27.9071 186.269 27.9231 186.301Z" fill="#DC6478"/>
<path d="M18.082 181.362C18.5461 180.85 19.2661 180.457 19.9862 180.449C19.9862 180.449 19.1861 179.033 20.2343 177.816C20.2423 177.816 20.2423 177.816 20.2343 177.808C21.0343 176.879 22.9146 176.055 27.035 176.047C27.035 176.047 27.035 176.055 27.043 176.055C27.139 176.231 28.8672 179.321 26.2109 181.034C25.2588 181.65 23.7226 182.082 21.3384 182.138C22.5545 183.643 22.6105 185.853 21.4664 187.494C20.5143 186.805 19.5622 185.717 18.7381 184.908C18.226 184.412 17.722 183.859 17.562 183.187C17.4179 182.563 17.618 181.874 18.082 181.362Z" fill="#C04056"/>
<path d="M22.1545 186.653C22.1625 186.333 21.8824 186.052 21.5624 186.012C21.2504 185.98 20.9303 186.164 20.7623 186.437C20.5943 186.709 20.5703 187.053 20.6423 187.357C20.7143 187.669 20.8743 187.95 21.0664 188.206C21.3464 188.582 21.7224 188.918 22.1705 189.046C22.6265 189.166 23.1706 189.03 23.4266 188.63C22.8426 188.046 22.1305 187.477 22.1545 186.653Z" fill="#FFA49C"/>
<path d="M28.9632 195.41L44.629 188.646L58.5905 172.845L60.2547 174.31L49.9576 192.12C49.1735 193.593 48.0294 194.85 46.6292 195.778L31.3475 204.455L28.9632 195.41Z" fill="#FFA49C"/>
<path d="M19.6822 293.899C19.0581 296.508 19.8982 299.422 21.8104 301.303C22.0265 301.519 22.2825 301.799 22.1865 302.088C22.0985 302.352 21.7784 302.44 21.5064 302.48C20.0742 302.704 18.6101 302.8 17.1619 302.744C16.5058 302.72 15.7858 302.648 15.3057 302.192C14.8977 301.807 14.7456 301.215 14.6496 300.663C14.1456 297.861 14.9857 294.923 15.9698 292.258C17.3219 292.858 18.33 293.306 19.6822 293.899Z" fill="#16162B"/>
<path d="M32.6596 293.939C32.6596 293.939 31.7876 297.341 32.1316 301.528C32.1636 301.952 32.4836 302.296 32.8997 302.352C34.6759 302.601 39.5324 303.129 44.1169 302.368C44.581 302.288 44.885 301.808 44.725 301.36C44.509 300.735 43.9729 300.207 43.3568 299.879C42.4687 299.407 41.4446 299.271 40.4925 298.95C38.3723 298.238 36.5961 296.573 35.748 294.508C34.6279 294.548 33.7398 294.228 32.6596 293.939Z" fill="#16162B"/>
<path d="M37.7882 203.311C35.948 205.088 33.7158 206.096 34.6119 209.786C34.7879 212.892 35.0839 216.454 35.604 220.296C35.652 220.641 35.7 220.985 35.748 221.329C35.844 221.993 35.94 222.674 36.052 223.354C36.3561 225.323 36.7321 227.349 37.1641 229.414C35.596 229.606 34.0198 229.766 32.4356 229.854C27.267 230.174 22.0585 229.958 16.9299 229.214C16.9059 228.429 16.8899 227.509 16.8579 226.516C16.7459 222.922 16.5458 218.247 16.2578 214.077C16.1778 212.82 16.0818 211.611 15.9858 210.491C15.1297 210.451 14.1936 210.315 13.2175 210.018C13.2175 210.018 12.7934 199.692 18.5061 196.274H18.5141V196.266C19.8742 195.746 20.9623 195.434 21.7144 195.258C21.7224 195.258 21.7224 195.258 21.7224 195.258C21.7304 195.258 21.7384 195.25 21.7464 195.258V195.25C22.1145 195.17 22.4025 195.106 22.6025 195.074C22.7865 195.05 22.9066 195.034 22.9386 195.026H22.9466C22.9706 195.018 22.9866 195.01 23.0026 195.002C24.0907 194.561 25.1868 194.121 26.2669 193.689C27.195 194.161 28.2031 194.626 29.2273 195.098H29.2353L38.0442 191.472C38.0442 191.472 41.3966 194.177 41.4206 200.765C41.4206 200.781 39.5324 201.622 37.7882 203.311Z" fill="#DF4F4F"/>
<path d="M21.7469 195.266C21.7387 195.266 21.7304 195.274 21.7304 195.274C21.7469 195.266 21.7469 195.266 21.7469 195.266Z" fill="url(#paint0_linear)"/>
<path d="M38.0842 295.572C38.0842 295.572 33.6037 297.117 30.2114 295.484C30.2114 295.484 34.2118 269.597 28.2832 238.915C28.2752 238.867 28.2672 238.819 28.2592 238.771C28.2592 238.771 28.2592 238.875 28.2352 239.075C28.2352 239.179 28.2191 239.275 28.2191 239.379C28.2191 239.379 28.2191 239.379 28.2191 239.387C28.2111 239.467 28.2111 239.555 28.2031 239.643C28.2031 239.691 28.1951 239.739 28.1951 239.795C28.1871 239.827 28.1871 239.859 28.1871 239.9C27.7951 246.007 25.7629 277.914 21.7544 295.068C21.7544 295.068 21.7544 295.068 21.7384 295.076C21.4984 295.18 18.01 296.589 13.0895 294.123C13.0895 294.123 19.3542 247.968 16.3058 223.642C16.3058 223.642 23.7547 217.759 22.5945 206.136C22.5945 206.136 21.5704 199.308 18.5141 196.282C18.5141 196.282 20.3543 194.929 21.7064 195.274C21.7064 195.274 24.4587 200.044 25.3068 206.072L32.4116 205.904C32.3476 200.22 29.2113 195.121 29.2113 195.121C29.9873 194.409 30.6754 194.521 30.6754 194.521C33.7958 199.636 34.4518 205.856 34.4518 205.856C34.4518 205.856 43.9649 251.682 38.0842 295.572Z" fill="#FFC445"/>
<path d="M18.5861 224.114C19.6982 246.848 18.106 270.189 13.8896 292.522C13.8255 292.85 14.3296 292.995 14.3936 292.658C18.6261 270.269 20.2263 246.896 19.1141 224.114C19.0901 223.778 18.5701 223.778 18.5861 224.114Z" fill="#D19722"/>
<path d="M13.3295 221.136L20.8663 238.795L24.2827 236.881L18.8581 218.791L20.6903 209.041H20.6583C17.986 209.201 15.4737 208.713 13.3455 207.729L12.7614 217.926C12.7054 219.031 12.8974 220.128 13.3295 221.136Z" fill="#FFA49C"/>
<path d="M20.1462 239.323C22.2585 238.627 24.1227 237.45 25.6589 235.841C25.8909 235.601 25.5229 235.225 25.2908 235.473C23.8187 237.026 22.0425 238.155 20.0102 238.827C19.6902 238.923 19.8262 239.427 20.1462 239.323Z" fill="#D19722"/>
<path d="M22.9466 195.042C22.9706 195.034 22.9866 195.026 23.0026 195.018C24.0907 194.578 25.1868 194.137 26.2669 193.705C27.195 194.177 28.2031 194.642 29.2273 195.114C29.2193 195.122 31.7555 205.08 22.9466 195.042Z" fill="#FFA49C"/>
<path d="M56.9424 175.23C56.8544 174.486 57.0944 173.733 57.4784 173.085C57.8625 172.436 58.3745 171.892 58.8866 171.34C59.8147 170.347 60.7508 169.355 61.6789 168.362C61.8789 168.154 62.0789 167.938 62.351 167.826C62.623 167.722 62.967 167.762 63.135 167.994C63.2551 168.162 63.2551 168.386 63.183 168.578C63.111 168.77 62.983 168.93 62.855 169.091C62.575 169.419 62.279 169.739 62.0469 170.107C61.8149 170.475 61.6549 170.9 61.6949 171.332C61.7429 171.86 62.0789 172.316 62.1909 172.829C62.383 173.717 61.8869 174.638 61.1828 175.206C60.4788 175.774 59.5907 176.063 58.7266 176.335C58.1585 175.983 57.5184 175.598 56.9424 175.23Z" fill="#FFA49C"/>
<path d="M32.4436 252.123C31.9796 247.753 31.4435 243.19 30.1874 238.931C30.7954 238.443 31.3715 237.931 31.9236 237.379C32.1396 237.162 31.8036 236.834 31.5875 237.042C31.0915 237.539 30.5714 238.003 30.0354 238.443C29.8913 238.563 29.7473 238.675 29.5953 238.779C29.2433 239.059 28.8832 239.324 28.5072 239.564C28.5632 237.843 28.5712 236.122 28.5712 234.409C28.5712 234.105 28.0991 234.105 28.0991 234.409C28.1071 236.226 28.0911 238.043 28.0351 239.876C28.0271 240.06 28.0191 240.252 28.0111 240.436C27.8991 243.614 27.6751 246.784 27.219 249.906C27.171 250.202 27.6351 250.33 27.6751 250.026C28.1471 246.76 28.3872 243.446 28.4912 240.14C28.9152 239.86 29.3393 239.564 29.7393 239.26C30.9955 243.574 31.5155 248.201 31.9636 252.627C33.3957 266.748 32.6276 281.036 30.8194 295.084C30.7794 295.42 31.2995 295.412 31.3395 295.084C33.1877 280.876 33.9478 266.403 32.4436 252.123Z" fill="#D19722"/>
<path d="M22.3305 207.385C21.9064 207.817 21.4824 208.249 21.0583 208.682C21.1784 208.057 21.3064 207.425 21.4264 206.801C21.4904 206.472 20.9863 206.328 20.9223 206.665C20.5463 208.594 20.1702 210.515 19.7862 212.444C19.7222 212.772 20.2263 212.916 20.2903 212.58C20.4903 211.571 20.6823 210.563 20.8823 209.562C20.9223 209.554 20.9543 209.53 20.9943 209.498C21.5624 208.922 22.1305 208.337 22.6905 207.761C22.9306 207.513 22.5625 207.145 22.3305 207.385Z" fill="#BB3B3B"/>
<defs>
<linearGradient id="paint0_linear" x1="21.7292" y1="195.269" x2="21.7485" y2="195.269" gradientUnits="userSpaceOnUse">
<stop stop-color="#C2A9FF"/>
<stop offset="1" stop-color="#E0D3FF"/>
</linearGradient>
</defs>
</svg>
