<svg width="20" height="14" viewBox="0 0 20 14" fill="none" xmlns="http://www.w3.org/2000/svg">
<path d="M18.9467 0.613148C18.8227 0.488177 18.6753 0.388984 18.5128 0.321292C18.3503 0.253601 18.176 0.21875 18 0.21875C17.824 0.21875 17.6497 0.253601 17.4872 0.321292C17.3248 0.388984 17.1773 0.488177 17.0533 0.613148L7.12002 10.5598L2.94668 6.37315C2.81799 6.24883 2.66606 6.15108 2.49959 6.08547C2.33312 6.01987 2.15535 5.98769 1.97644 5.99079C1.79754 5.99388 1.62099 6.03219 1.45689 6.10351C1.29278 6.17484 1.14433 6.27779 1.02001 6.40648C0.895696 6.53518 0.797944 6.6871 0.732339 6.85357C0.666734 7.02005 0.63456 7.19781 0.637655 7.37672C0.64075 7.55563 0.679054 7.73217 0.750379 7.89628C0.821703 8.06038 0.924652 8.20883 1.05335 8.33315L6.17335 13.4531C6.2973 13.5781 6.44477 13.6773 6.60725 13.745C6.76972 13.8127 6.944 13.8475 7.12002 13.8475C7.29603 13.8475 7.47031 13.8127 7.63278 13.745C7.79526 13.6773 7.94273 13.5781 8.06668 13.4531L18.9467 2.57315C19.082 2.44829 19.19 2.29676 19.2639 2.12809C19.3378 1.95942 19.3759 1.77728 19.3759 1.59315C19.3759 1.40901 19.3378 1.22687 19.2639 1.05821C19.19 0.88954 19.082 0.738004 18.9467 0.613148V0.613148Z" fill="#FFC700"/>
</svg>
