<svg width="36" height="36" viewBox="0 0 36 36" fill="none" xmlns="http://www.w3.org/2000/svg">
<path d="M15 19.5C14.7033 19.5 14.4133 19.588 14.1666 19.7528C13.92 19.9176 13.7277 20.1519 13.6142 20.426C13.5006 20.7001 13.4709 21.0017 13.5288 21.2926C13.5867 21.5836 13.7296 21.8509 13.9393 22.0607C14.1491 22.2704 14.4164 22.4133 14.7074 22.4712C14.9983 22.5291 15.2999 22.4994 15.574 22.3858C15.8481 22.2723 16.0824 22.08 16.2472 21.8334C16.412 21.5867 16.5 21.2967 16.5 21C16.5 20.6022 16.342 20.2206 16.0607 19.9393C15.7794 19.658 15.3978 19.5 15 19.5ZM15 13.5C14.7033 13.5 14.4133 13.588 14.1666 13.7528C13.92 13.9176 13.7277 14.1519 13.6142 14.426C13.5006 14.7001 13.4709 15.0017 13.5288 15.2926C13.5867 15.5836 13.7296 15.8509 13.9393 16.0607C14.1491 16.2704 14.4164 16.4133 14.7074 16.4712C14.9983 16.5291 15.2999 16.4994 15.574 16.3858C15.8481 16.2723 16.0824 16.08 16.2472 15.8334C16.412 15.5867 16.5 15.2967 16.5 15C16.5 14.6022 16.342 14.2206 16.0607 13.9393C15.7794 13.658 15.3978 13.5 15 13.5ZM21 13.5C20.7033 13.5 20.4133 13.588 20.1666 13.7528C19.92 13.9176 19.7277 14.1519 19.6142 14.426C19.5006 14.7001 19.4709 15.0017 19.5288 15.2926C19.5867 15.5836 19.7296 15.8509 19.9393 16.0607C20.1491 16.2704 20.4164 16.4133 20.7074 16.4712C20.9983 16.5291 21.2999 16.4994 21.574 16.3858C21.8481 16.2723 22.0824 16.08 22.2472 15.8334C22.412 15.5867 22.5 15.2967 22.5 15C22.5 14.6022 22.342 14.2206 22.0607 13.9393C21.7794 13.658 21.3978 13.5 21 13.5ZM31.5 19.5C31.8978 19.5 32.2794 19.342 32.5607 19.0607C32.842 18.7794 33 18.3978 33 18C33 17.6022 32.842 17.2206 32.5607 16.9393C32.2794 16.658 31.8978 16.5 31.5 16.5H28.5V13.5H31.5C31.8978 13.5 32.2794 13.342 32.5607 13.0607C32.842 12.7794 33 12.3978 33 12C33 11.6022 32.842 11.2206 32.5607 10.9393C32.2794 10.658 31.8978 10.5 31.5 10.5H28.23C28.006 9.8709 27.6448 9.29954 27.1727 8.82735C26.7005 8.35516 26.1291 7.99398 25.5 7.77V4.5C25.5 4.10218 25.342 3.72064 25.0607 3.43934C24.7794 3.15804 24.3978 3 24 3C23.6022 3 23.2206 3.15804 22.9393 3.43934C22.658 3.72064 22.5 4.10218 22.5 4.5V7.5H19.5V4.5C19.5 4.10218 19.342 3.72064 19.0607 3.43934C18.7794 3.15804 18.3978 3 18 3C17.6022 3 17.2206 3.15804 16.9393 3.43934C16.658 3.72064 16.5 4.10218 16.5 4.5V7.5H13.5V4.5C13.5 4.10218 13.342 3.72064 13.0607 3.43934C12.7794 3.15804 12.3978 3 12 3C11.6022 3 11.2206 3.15804 10.9393 3.43934C10.658 3.72064 10.5 4.10218 10.5 4.5V7.77C9.8709 7.99398 9.29954 8.35516 8.82735 8.82735C8.35516 9.29954 7.99398 9.8709 7.77 10.5H4.5C4.10218 10.5 3.72064 10.658 3.43934 10.9393C3.15804 11.2206 3 11.6022 3 12C3 12.3978 3.15804 12.7794 3.43934 13.0607C3.72064 13.342 4.10218 13.5 4.5 13.5H7.5V16.5H4.5C4.10218 16.5 3.72064 16.658 3.43934 16.9393C3.15804 17.2206 3 17.6022 3 18C3 18.3978 3.15804 18.7794 3.43934 19.0607C3.72064 19.342 4.10218 19.5 4.5 19.5H7.5V22.5H4.5C4.10218 22.5 3.72064 22.658 3.43934 22.9393C3.15804 23.2206 3 23.6022 3 24C3 24.3978 3.15804 24.7794 3.43934 25.0607C3.72064 25.342 4.10218 25.5 4.5 25.5H7.77C7.99398 26.1291 8.35516 26.7005 8.82735 27.1727C9.29954 27.6448 9.8709 28.006 10.5 28.23V31.5C10.5 31.8978 10.658 32.2794 10.9393 32.5607C11.2206 32.842 11.6022 33 12 33C12.3978 33 12.7794 32.842 13.0607 32.5607C13.342 32.2794 13.5 31.8978 13.5 31.5V28.5H16.5V31.5C16.5 31.8978 16.658 32.2794 16.9393 32.5607C17.2206 32.842 17.6022 33 18 33C18.3978 33 18.7794 32.842 19.0607 32.5607C19.342 32.2794 19.5 31.8978 19.5 31.5V28.5H22.5V31.5C22.5 31.8978 22.658 32.2794 22.9393 32.5607C23.2206 32.842 23.6022 33 24 33C24.3978 33 24.7794 32.842 25.0607 32.5607C25.342 32.2794 25.5 31.8978 25.5 31.5V28.23C26.1291 28.006 26.7005 27.6448 27.1727 27.1727C27.6448 26.7005 28.006 26.1291 28.23 25.5H31.5C31.8978 25.5 32.2794 25.342 32.5607 25.0607C32.842 24.7794 33 24.3978 33 24C33 23.6022 32.842 23.2206 32.5607 22.9393C32.2794 22.658 31.8978 22.5 31.5 22.5H28.5V19.5H31.5ZM25.5 24C25.5 24.3978 25.342 24.7794 25.0607 25.0607C24.7794 25.342 24.3978 25.5 24 25.5H12C11.6022 25.5 11.2206 25.342 10.9393 25.0607C10.658 24.7794 10.5 24.3978 10.5 24V12C10.5 11.6022 10.658 11.2206 10.9393 10.9393C11.2206 10.658 11.6022 10.5 12 10.5H24C24.3978 10.5 24.7794 10.658 25.0607 10.9393C25.342 11.2206 25.5 11.6022 25.5 12V24ZM21 19.5C20.7033 19.5 20.4133 19.588 20.1666 19.7528C19.92 19.9176 19.7277 20.1519 19.6142 20.426C19.5006 20.7001 19.4709 21.0017 19.5288 21.2926C19.5867 21.5836 19.7296 21.8509 19.9393 22.0607C20.1491 22.2704 20.4164 22.4133 20.7074 22.4712C20.9983 22.5291 21.2999 22.4994 21.574 22.3858C21.8481 22.2723 22.0824 22.08 22.2472 21.8334C22.412 21.5867 22.5 21.2967 22.5 21C22.5 20.6022 22.342 20.2206 22.0607 19.9393C21.7794 19.658 21.3978 19.5 21 19.5Z" fill="#FFC700"/>
</svg>
