<svg width="54" height="54" viewBox="0 0 54 54" fill="none" xmlns="http://www.w3.org/2000/svg">
<path d="M54 24.3332C54.0075 22.4536 53.5182 20.6054 52.5816 18.9758C51.645 17.3461 50.2945 15.9929 48.6667 15.0532C48.7068 14.5918 48.7068 14.1278 48.6667 13.6665C48.6667 11.5448 47.8238 9.50992 46.3235 8.00963C44.8233 6.50934 42.7884 5.66649 40.6667 5.66649H40.1867C39.7426 4.43532 39.0033 3.33191 38.0335 2.45301C37.0637 1.57412 35.893 0.946579 34.6242 0.625432C33.3554 0.304285 32.0272 0.299337 30.7561 0.611022C29.4849 0.922708 28.3097 1.54151 27.3334 2.41315C26.357 1.54151 25.1818 0.922708 23.9106 0.611022C22.6395 0.299337 21.3113 0.304285 20.0425 0.625432C18.7737 0.946579 17.603 1.57412 16.6332 2.45301C15.6634 3.33191 14.9241 4.43532 14.48 5.66649H14C11.8783 5.66649 9.84346 6.50934 8.34317 8.00963C6.84287 9.50992 6.00002 11.5448 6.00002 13.6665C5.95988 14.1278 5.95988 14.5918 6.00002 15.0532C4.48658 15.9086 3.20517 17.121 2.26733 18.5848C1.32949 20.0486 0.763641 21.7195 0.619051 23.4519C0.474461 25.1844 0.755508 26.9259 1.43773 28.5249C2.11994 30.124 3.18266 31.532 4.53335 32.6265C3.65941 34.2565 3.22433 36.0858 3.27081 37.9348C3.31729 39.7837 3.84374 41.5888 4.79848 43.1729C5.75322 44.757 7.10345 46.0656 8.71663 46.9702C10.3298 47.8749 12.1505 48.3446 14 48.3332H14.48C14.9241 49.5643 15.6634 50.6677 16.6332 51.5466C17.603 52.4255 18.7737 53.0531 20.0425 53.3742C21.3113 53.6954 22.6395 53.7003 23.9106 53.3886C25.1818 53.0769 26.357 52.4581 27.3334 51.5865C28.3097 52.4581 29.4849 53.0769 30.7561 53.3886C32.0272 53.7003 33.3554 53.6954 34.6242 53.3742C35.893 53.0531 37.0637 52.4255 38.0335 51.5466C39.0033 50.6677 39.7426 49.5643 40.1867 48.3332H40.6667C42.5049 48.3215 44.3089 47.8351 45.9037 46.9209C47.4986 46.0068 48.8301 44.696 49.7691 43.1157C50.7082 41.5354 51.2229 39.7392 51.2634 37.9014C51.3038 36.0636 50.8686 34.2466 50 32.6265C51.2438 31.6306 52.2488 30.3688 52.941 28.9336C53.6332 27.4985 53.995 25.9265 54 24.3332ZM24.6667 17.7998C24.0859 17.4676 23.4795 17.1823 22.8534 16.9465C22.1815 16.7202 21.4472 16.77 20.8121 17.0851C20.177 17.4001 19.693 17.9546 19.4667 18.6265C19.2404 19.2984 19.2902 20.0326 19.6053 20.6678C19.9203 21.3029 20.4748 21.7868 21.1467 22.0132C22.1732 22.3843 23.0611 23.0614 23.6906 23.9531C24.3201 24.8449 24.6608 25.9083 24.6667 26.9998V31.1332C24.0859 30.801 23.4795 30.5156 22.8534 30.2798C22.1815 30.0535 21.4472 30.1034 20.8121 30.4184C20.177 30.7335 19.693 31.2879 19.4667 31.9598C19.2404 32.6317 19.2902 33.366 19.6053 34.0011C19.9203 34.6362 20.4748 35.1202 21.1467 35.3465C22.1732 35.7176 23.0611 36.3947 23.6906 37.2865C24.3201 38.1782 24.6608 39.2416 24.6667 40.3332V45.6665C24.6667 46.3737 24.3857 47.052 23.8856 47.5521C23.3855 48.0522 22.7073 48.3332 22 48.3332C21.4841 48.3298 20.9803 48.1768 20.5495 47.8928C20.1188 47.6088 19.7797 47.206 19.5734 46.7332C20.0205 46.4708 20.4483 46.1767 20.8534 45.8532C21.123 45.629 21.3459 45.354 21.5092 45.0437C21.6726 44.7335 21.7732 44.3941 21.8054 44.045C21.8376 43.6958 21.8007 43.3437 21.6968 43.0088C21.593 42.674 21.4241 42.3628 21.2 42.0932C20.9759 41.8235 20.7009 41.6006 20.3906 41.4373C20.0804 41.2739 19.741 41.1733 19.3918 41.1411C19.0427 41.1089 18.6906 41.1458 18.3557 41.2497C18.0208 41.3535 17.7097 41.5224 17.44 41.7465C16.4772 42.5571 15.2587 43.001 14 42.9998C12.5855 42.9998 11.229 42.4379 10.2288 41.4377C9.22859 40.4375 8.66669 39.081 8.66669 37.6665C8.67945 36.6627 8.97523 35.683 9.52002 34.8398C10.1185 34.9472 10.7253 35.0007 11.3334 34.9998C12.0406 34.9998 12.7189 34.7189 13.219 34.2188C13.7191 33.7187 14 33.0404 14 32.3332C14 31.6259 13.7191 30.9476 13.219 30.4475C12.7189 29.9474 12.0406 29.6665 11.3334 29.6665C10.7035 29.6701 10.0787 29.5524 9.49335 29.3198C8.53427 28.9739 7.69443 28.3604 7.07333 27.5518C6.45222 26.7433 6.07588 25.7737 5.98889 24.7579C5.9019 23.742 6.10791 22.7225 6.5825 21.8202C7.05709 20.9178 7.78038 20.1704 8.66669 19.6665C9.04562 20.0151 9.45629 20.3276 9.89335 20.5998C10.5087 20.9534 11.2392 21.0482 11.9244 20.8631C12.6095 20.6781 13.1931 20.2285 13.5467 19.6132C13.9003 18.9979 13.995 18.2673 13.81 17.5821C13.6249 16.897 13.1753 16.3134 12.56 15.9598C12.1846 15.7527 11.8715 15.4489 11.6534 15.0798C11.4068 14.6517 11.2953 14.1591 11.3334 13.6665C11.3334 12.9592 11.6143 12.281 12.1144 11.7809C12.6145 11.2808 13.2928 10.9998 14 10.9998C14.1858 10.9739 14.3743 10.9739 14.56 10.9998C14.7012 11.4283 14.8704 11.847 15.0667 12.2532C15.2409 12.5587 15.4738 12.8268 15.7521 13.042C16.0304 13.2571 16.3484 13.4151 16.688 13.5068C17.0276 13.5985 17.3819 13.6221 17.7307 13.5763C18.0794 13.5305 18.4157 13.4161 18.72 13.2398C19.3112 12.8841 19.7416 12.3131 19.9206 11.6467C20.0996 10.9804 20.0134 10.2706 19.68 9.66649C19.4563 9.25744 19.3372 8.79939 19.3334 8.33315C19.3334 7.62591 19.6143 6.94763 20.1144 6.44754C20.6145 5.94744 21.2928 5.66649 22 5.66649C22.7073 5.66649 23.3855 5.94744 23.8856 6.44754C24.3857 6.94763 24.6667 7.62591 24.6667 8.33315V17.7998ZM45.1734 29.3198C44.588 29.5524 43.9633 29.6701 43.3334 29.6665C42.6261 29.6665 41.9478 29.9474 41.4477 30.4475C40.9476 30.9476 40.6667 31.6259 40.6667 32.3332C40.6667 33.0404 40.9476 33.7187 41.4477 34.2188C41.9478 34.7189 42.6261 34.9998 43.3334 34.9998C43.9414 35.0007 44.5482 34.9472 45.1467 34.8398C45.6915 35.683 45.9873 36.6627 46 37.6665C46 39.081 45.4381 40.4375 44.4379 41.4377C43.4377 42.4379 42.0812 42.9998 40.6667 42.9998C39.4081 43.001 38.1895 42.5571 37.2267 41.7465C36.6821 41.2939 35.98 41.0761 35.2749 41.1411C34.5698 41.2061 33.9193 41.5486 33.4667 42.0932C33.0141 42.6377 32.7963 43.3398 32.8613 44.045C32.9263 44.7501 33.2688 45.4005 33.8134 45.8532C34.2185 46.1767 34.6462 46.4708 35.0934 46.7332C34.887 47.206 34.5479 47.6088 34.1172 47.8928C33.6865 48.1768 33.1826 48.3298 32.6667 48.3332C31.9594 48.3332 31.2812 48.0522 30.7811 47.5521C30.281 47.052 30 46.3737 30 45.6665V40.3332C30.0059 39.2416 30.3466 38.1782 30.9761 37.2865C31.6056 36.3947 32.4935 35.7176 33.52 35.3465C34.1919 35.1202 34.7464 34.6362 35.0614 34.0011C35.3765 33.366 35.4263 32.6317 35.2 31.9598C34.9737 31.2879 34.4897 30.7335 33.8546 30.4184C33.2195 30.1034 32.4852 30.0535 31.8134 30.2798C31.1872 30.5156 30.5808 30.801 30 31.1332V26.9998C30.0059 25.9083 30.3466 24.8449 30.9761 23.9531C31.6056 23.0614 32.4935 22.3843 33.52 22.0132C34.1919 21.7868 34.7464 21.3029 35.0614 20.6678C35.3765 20.0326 35.4263 19.2984 35.2 18.6265C34.9737 17.9546 34.4897 17.4001 33.8546 17.0851C33.2195 16.77 32.4852 16.7202 31.8134 16.9465C31.1872 17.1823 30.5808 17.4676 30 17.7998V8.33315C30 7.62591 30.281 6.94763 30.7811 6.44754C31.2812 5.94744 31.9594 5.66649 32.6667 5.66649C33.3739 5.66649 34.0522 5.94744 34.5523 6.44754C35.0524 6.94763 35.3334 7.62591 35.3334 8.33315C35.3295 8.79939 35.2104 9.25744 34.9867 9.66649C34.8093 9.96925 34.6934 10.3041 34.6456 10.6517C34.5978 10.9994 34.6191 11.353 34.7083 11.6924C34.7975 12.0318 34.9528 12.3503 35.1653 12.6296C35.3778 12.9088 35.6433 13.1434 35.9467 13.3198C36.251 13.4961 36.5873 13.6105 36.936 13.6563C37.2848 13.7021 37.6391 13.6785 37.9787 13.5868C38.3183 13.4951 38.6363 13.3371 38.9146 13.122C39.1929 12.9068 39.4258 12.6387 39.6 12.3332C39.7996 11.901 39.9689 11.4555 40.1067 10.9998C40.2925 10.9739 40.4809 10.9739 40.6667 10.9998C41.3739 10.9998 42.0522 11.2808 42.5523 11.7809C43.0524 12.281 43.3334 12.9592 43.3334 13.6665C43.3293 14.1892 43.1716 14.6993 42.88 15.1332C42.6619 15.4792 42.359 15.7638 42 15.9598C41.3847 16.3134 40.9351 16.897 40.7501 17.5821C40.565 18.2673 40.6597 18.9979 41.0134 19.6132C41.367 20.2285 41.9505 20.6781 42.6357 20.8631C43.3208 21.0482 44.0514 20.9534 44.6667 20.5998C45.1455 20.3409 45.5929 20.0277 46 19.6665C46.8894 20.1615 47.6185 20.9007 48.1013 21.7967C48.5841 22.6927 48.8004 23.7082 48.7247 24.7232C48.649 25.7382 48.2844 26.7104 47.674 27.5249C47.0636 28.3394 46.2329 28.9622 45.28 29.3198H45.1734Z" fill="#FFC700"/>
</svg>
