<svg width="36" height="36" viewBox="0 0 36 36" fill="none" xmlns="http://www.w3.org/2000/svg">
<path d="M32.565 11.0702L24.93 3.43521C24.649 3.15584 24.2688 2.99902 23.8725 2.99902C23.4762 2.99902 23.096 3.15584 22.815 3.43521C22.6744 3.57466 22.5628 3.74056 22.4867 3.92335C22.4105 4.10614 22.3713 4.30219 22.3713 4.50021C22.3713 4.69823 22.4105 4.89429 22.4867 5.07708C22.5628 5.25987 22.6744 5.42577 22.815 5.56521L25.5 8.31021L17.37 16.5002L15.87 15.0002C15.4519 14.5807 14.9552 14.2478 14.4082 14.0207C13.8612 13.7936 13.2748 13.6767 12.6825 13.6767C12.0902 13.6767 11.5038 13.7936 10.9568 14.0207C10.4098 14.2478 9.91306 14.5807 9.495 15.0002L4.32 20.1302C3.90022 20.5495 3.5675 21.0476 3.34096 21.5959C3.11442 22.1442 2.99854 22.7319 3 23.3252V28.5002C3 29.6937 3.4741 30.8383 4.31802 31.6822C5.16193 32.5261 6.30652 33.0002 7.5 33.0002H12.675C13.2683 33.0017 13.856 32.8858 14.4043 32.6593C14.9526 32.4327 15.4507 32.1 15.87 31.6802L21 26.5352C21.4195 26.1171 21.7524 25.6204 21.9795 25.0734C22.2066 24.5264 22.3235 23.94 22.3235 23.3477C22.3235 22.7554 22.2066 22.169 21.9795 21.622C21.7524 21.075 21.4195 20.5783 21 20.1602L19.5 18.6602L27.69 10.5002L30.435 13.2452C30.5744 13.3858 30.7403 13.4974 30.9231 13.5735C31.1059 13.6497 31.302 13.6889 31.5 13.6889C31.698 13.6889 31.8941 13.6497 32.0769 13.5735C32.2597 13.4974 32.4256 13.3858 32.565 13.2452C32.7125 13.1051 32.83 12.9364 32.9102 12.7495C32.9905 12.5625 33.0319 12.3612 33.0319 12.1577C33.0319 11.9543 32.9905 11.7529 32.9102 11.566C32.83 11.379 32.7125 11.2103 32.565 11.0702ZM18.9 24.4052L13.74 29.5652C13.5998 29.7042 13.4336 29.8142 13.2509 29.8889C13.0681 29.9635 12.8724 30.0014 12.675 30.0002H7.5C7.10217 30.0002 6.72064 29.8422 6.43934 29.5609C6.15803 29.2796 6 28.898 6 28.5002V23.3252C5.99886 23.1278 6.03669 22.9321 6.11134 22.7494C6.18599 22.5666 6.29598 22.4004 6.435 22.2602L11.595 17.1002C11.876 16.8208 12.2562 16.664 12.6525 16.664C13.0488 16.664 13.429 16.8208 13.71 17.1002L15.21 18.6002L13.875 19.9502C13.5956 20.2313 13.4388 20.6114 13.4388 21.0077C13.4388 21.404 13.5956 21.7842 13.875 22.0652C14.0222 22.2116 14.1982 22.3259 14.3918 22.4008C14.5855 22.4756 14.7926 22.5095 15 22.5002C15.3935 22.4986 15.7706 22.3423 16.05 22.0652L17.4 20.7302L18.9 22.2302C19.0475 22.3703 19.165 22.539 19.2452 22.726C19.3255 22.9129 19.3669 23.1143 19.3669 23.3177C19.3669 23.5212 19.3255 23.7225 19.2452 23.9095C19.165 24.0964 19.0475 24.2651 18.9 24.4052Z" fill="#FFC700"/>
</svg>
