<svg width="54" height="49" viewBox="0 0 54 49" fill="none" xmlns="http://www.w3.org/2000/svg">
<path d="M38.44 16.2268C38.6879 16.4768 38.9828 16.6752 39.3078 16.8105C39.6327 16.9459 39.9813 17.0156 40.3333 17.0156C40.6853 17.0156 41.0339 16.9459 41.3589 16.8105C41.6838 16.6752 41.9787 16.4768 42.2266 16.2268L52.8933 5.56017C53.3955 5.05803 53.6776 4.37697 53.6776 3.66684C53.6776 2.9567 53.3955 2.27565 52.8933 1.7735C52.3912 1.27136 51.7101 0.989258 51 0.989258C50.2898 0.989258 49.6088 1.27136 49.1067 1.7735L40.3333 10.5735L36.8933 7.10684C36.6447 6.8582 36.3495 6.66097 36.0246 6.52641C35.6998 6.39185 35.3516 6.32259 35 6.32259C34.2898 6.32259 33.6088 6.60469 33.1066 7.10684C32.858 7.35547 32.6608 7.65065 32.5262 7.9755C32.3917 8.30036 32.3224 8.64854 32.3224 9.00017C32.3224 9.71031 32.6045 10.3914 33.1066 10.8935L38.44 16.2268ZM51 14.3335C50.2927 14.3335 49.6145 14.6145 49.1144 15.1146C48.6143 15.6146 48.3333 16.2929 48.3333 17.0002V41.0002C48.3333 41.7074 48.0524 42.3857 47.5523 42.8858C47.0522 43.3859 46.3739 43.6668 45.6666 43.6668H8.33331C7.62607 43.6668 6.94779 43.3859 6.4477 42.8858C5.9476 42.3857 5.66665 41.7074 5.66665 41.0002V15.4268L21.3466 31.1335C22.8433 32.6179 24.8654 33.4517 26.9733 33.4535C29.1343 33.4424 31.2038 32.5801 32.7333 31.0535L37.32 26.4668C37.8221 25.9647 38.1042 25.2836 38.1042 24.5735C38.1042 23.8634 37.8221 23.1823 37.32 22.6802C36.8178 22.178 36.1368 21.8959 35.4266 21.8959C34.7165 21.8959 34.0355 22.178 33.5333 22.6802L28.8666 27.3468C28.3682 27.8354 27.698 28.1091 27 28.1091C26.302 28.1091 25.6318 27.8354 25.1333 27.3468L9.42665 11.6668H24.3333C25.0406 11.6668 25.7188 11.3859 26.2189 10.8858C26.719 10.3857 27 9.70741 27 9.00017C27 8.29292 26.719 7.61465 26.2189 7.11455C25.7188 6.61445 25.0406 6.3335 24.3333 6.3335H8.33331C6.21158 6.3335 4.17675 7.17636 2.67646 8.67665C1.17617 10.1769 0.333313 12.2118 0.333313 14.3335V41.0002C0.333313 43.1219 1.17617 45.1567 2.67646 46.657C4.17675 48.1573 6.21158 49.0002 8.33331 49.0002H45.6666C47.7884 49.0002 49.8232 48.1573 51.3235 46.657C52.8238 45.1567 53.6666 43.1219 53.6666 41.0002V17.0002C53.6666 16.2929 53.3857 15.6146 52.8856 15.1146C52.3855 14.6145 51.7072 14.3335 51 14.3335Z" fill="#FFC700"/>
</svg>
