<svg width="600" height="452" viewBox="0 0 600 452" fill="none" xmlns="http://www.w3.org/2000/svg">
<path d="M319.834 23.4422V426.277C319.834 439.23 309.339 449.72 296.365 449.72H47.3484C34.3896 449.72 23.8795 439.23 23.8795 426.277V23.4422C23.8795 10.4897 34.3896 0 47.3484 0H296.365C309.339 0 319.834 10.4897 319.834 23.4422Z" fill="#5C6CA1"/>
<path opacity="0.5" d="M319.834 60.6121V111.875H23.8795V60.2168L319.834 60.6121Z" fill="#A8A4B2"/>
<path opacity="0.5" d="M319.834 306.513V357.76L23.8795 359.919V306.513H319.834Z" fill="#A8A4B2"/>
<path d="M342.283 23.4422V426.277C342.283 426.794 342.268 427.311 342.223 427.813C341.432 440.036 331.256 449.72 318.815 449.72H69.7982C61.0677 449.72 53.4476 444.961 49.4169 437.892C47.4549 434.472 46.3293 430.504 46.3293 426.262V23.4422C46.3293 10.4897 56.8242 0 69.7982 0H318.83C331.773 0 342.283 10.4897 342.283 23.4422Z" fill="#97B3E2"/>
<path d="M260.211 0L46.3293 402.805V290.808L238.658 0H260.211Z" fill="#CBDCEA"/>
<path d="M342.283 23.4422V35.2393L124.387 449.72H69.7982C61.0677 449.72 53.4476 444.961 49.417 437.892L279.725 0H318.83C331.773 0 342.283 10.4897 342.283 23.4422Z" fill="#CBDCEA"/>
<path d="M194.306 293.788C254.737 293.788 303.726 244.823 303.726 184.421C303.726 124.02 254.737 75.0547 194.306 75.0547C133.875 75.0547 84.8864 124.02 84.8864 184.421C84.8864 244.823 133.875 293.788 194.306 293.788Z" fill="#333F77"/>
<path d="M303.726 311.94V341.645C303.726 341.645 279.847 356.498 272.942 375.592H115.656C108.751 356.498 84.8712 341.645 84.8712 341.645V311.94C113.527 302.393 128.402 261.528 128.402 261.528H260.211C260.196 261.544 275.056 302.393 303.726 311.94Z" fill="#333F77"/>
<path d="M63.5013 33.05C65.3417 38.9942 70.3306 42.9316 76.5058 43.5093C78.3614 43.6766 78.3462 40.7881 76.5058 40.6209C71.6538 40.1648 67.7297 36.9115 66.2847 32.2747C65.7372 30.5112 62.9538 31.2713 63.5013 33.05Z" fill="white"/>
<path d="M289.566 184.422C289.566 207.104 281.642 227.916 268.409 244.274C264.181 249.503 259.405 254.262 254.173 258.503C240.255 269.738 223.129 277.157 204.375 279.118C201.075 279.467 197.713 279.635 194.306 279.635C190.899 279.635 187.553 279.452 184.237 279.118C136.357 274.086 99.0468 233.617 99.0468 184.422C99.0468 161.755 106.971 140.927 120.204 124.585C124.432 119.355 129.208 114.581 134.44 110.355C148.357 99.1204 165.484 91.7016 184.237 89.7405C187.538 89.3909 190.899 89.2236 194.306 89.2236C197.713 89.2236 201.06 89.4061 204.375 89.7405C252.241 94.7573 289.566 135.226 289.566 184.422Z" fill="#F2DFE2"/>
<path d="M268.394 244.258C264.165 249.487 259.39 254.246 254.157 258.487L195.934 188.389L204.36 279.102C201.06 279.451 197.698 279.619 194.291 279.619C190.884 279.619 187.538 279.436 184.222 279.102L192.953 184.968L120.204 124.569C124.432 119.339 129.208 114.565 134.44 110.339L192.664 180.438L184.237 89.7093C187.538 89.3596 190.899 89.1924 194.306 89.1924C197.713 89.1924 201.06 89.3748 204.375 89.7093L195.63 183.858L268.394 244.258Z" fill="white"/>
<path d="M194.306 217.031C212.325 217.031 226.932 202.431 226.932 184.422C226.932 166.412 212.325 151.812 194.306 151.812C176.288 151.812 161.681 166.412 161.681 184.422C161.681 202.431 176.288 217.031 194.306 217.031Z" fill="#FFC545"/>
<path d="M206.662 196.767C213.487 189.946 213.487 178.886 206.662 172.065C199.837 165.243 188.772 165.243 181.947 172.065C175.122 178.886 175.122 189.946 181.947 196.767C188.772 203.589 199.837 203.589 206.662 196.767Z" fill="#333F77"/>
<path d="M216.406 238.284L212.847 240.443L129.908 350.083L130.836 351.406H122.531C121.968 351.406 121.39 351.391 120.827 351.345C115.991 350.965 111.245 348.913 107.519 345.188C98.4841 336.158 99.3967 321.244 109.496 313.4L204.345 239.668C205.577 238.71 206.87 238.299 208.132 238.299H216.406V238.284Z" fill="#D79346"/>
<path d="M147.414 343.211L221.182 248.408C225.684 242.616 218.232 235.152 212.437 239.667L117.588 313.399C107.488 321.243 106.561 336.157 115.61 345.203C124.645 354.218 139.566 353.29 147.414 343.211Z" fill="#FFC445"/>
<path d="M130.851 339.927C136.714 339.927 141.467 335.176 141.467 329.315C141.467 323.455 136.714 318.704 130.851 318.704C124.987 318.704 120.234 323.455 120.234 329.315C120.234 335.176 124.987 339.927 130.851 339.927Z" fill="#333F77"/>
<path opacity="0.5" d="M342.283 93.9511V145.533L224.224 132.079L189.044 128.081L46.3293 111.799V60.2168L95.3965 65.7961L162.396 73.443L342.283 93.9511Z" fill="#9EB4C8"/>
<path d="M82.3312 29.0979C82.3312 31.8191 80.1257 34.0083 77.4184 34.0083C74.6958 34.0083 72.5056 31.8039 72.5056 29.0979C72.5056 26.3767 74.711 24.1875 77.4184 24.1875C80.1257 24.1875 82.3312 26.3919 82.3312 29.0979Z" fill="#505D9F"/>
<path d="M300.228 24.3245C296.745 35.5591 306.708 46.0184 318.115 42.9019C319.91 42.4154 319.149 39.6334 317.354 40.1198C308.016 42.6739 300.198 34.2061 303.027 25.0846C303.559 23.3211 300.776 22.561 300.228 24.3245Z" fill="white"/>
<path d="M318.784 29.0979C318.784 31.8191 316.579 34.0083 313.871 34.0083C311.149 34.0083 308.959 31.8039 308.959 29.0979C308.959 26.3767 311.164 24.1875 313.871 24.1875C316.579 24.1875 318.784 26.3919 318.784 29.0979Z" fill="#505D9F"/>
<path d="M64.2466 427.463C66.6802 432.647 71.6995 435.779 77.4032 435.931C79.2588 435.977 79.2588 433.088 77.4032 433.043C72.6577 432.921 68.7487 430.276 66.741 426.004C65.9501 424.332 63.4709 425.791 64.2466 427.463Z" fill="white"/>
<path d="M82.3312 421.489C82.3312 424.21 80.1257 426.399 77.4184 426.399C74.6958 426.399 72.5056 424.195 72.5056 421.489C72.5056 418.767 74.711 416.578 77.4184 416.578C80.1257 416.563 82.3312 418.767 82.3312 421.489Z" fill="#505D9F"/>
<path d="M299.407 421.489C299.62 429.5 305.841 435.718 313.856 435.931C315.712 435.977 315.712 433.088 313.856 433.043C307.422 432.875 302.464 427.919 302.297 421.489C302.251 419.634 299.361 419.634 299.407 421.489Z" fill="white"/>
<path d="M318.784 421.489C318.784 424.21 316.579 426.399 313.871 426.399C311.149 426.399 308.959 424.195 308.959 421.489C308.959 418.767 311.164 416.578 313.871 416.578C316.579 416.563 318.784 418.767 318.784 421.489Z" fill="#505D9F"/>
<path opacity="0.5" d="M224.224 132.079L189.044 128.081C181.348 123.018 172.891 118.914 164.465 115.22C148.19 108.105 131.201 101.978 116.918 91.4277C107.914 84.7842 99.9899 75.906 95.4117 65.8115L162.411 73.4584C165.438 79.4481 169.529 84.921 174.518 89.421C184.146 98.1016 196.481 103.103 206.961 110.704C214.384 116.071 221.426 123.596 224.224 132.079Z" fill="#9EB4C8"/>
<path d="M33.264 61.6762C43.3634 61.661 52.6415 62.3755 62.6496 63.5309C82.4376 65.7808 102.21 68.046 121.999 70.296C171.02 75.8905 220.057 81.4698 269.078 87.0643C280.623 88.3869 292.167 89.6943 303.711 91.0169C305.552 91.2298 305.536 88.3413 303.711 88.1285C272.166 84.5255 240.605 80.9377 209.06 77.3347C162.016 71.9682 114.972 66.617 67.9274 61.2505C56.1549 59.9127 45.0821 58.7877 33.2488 58.8029C31.4084 58.7877 31.4084 61.6762 33.264 61.6762Z" fill="white"/>
<path opacity="0.35" d="M46.3293 111.799L342.284 145.533L342.451 150.444L46.3293 114.262V111.799Z" fill="#97B3E2"/>
<path d="M300 451.999C465.685 451.999 600 450.563 600 448.792C600 447.02 465.685 445.584 300 445.584C134.315 445.584 0 447.02 0 448.792C0 450.563 134.315 451.999 300 451.999Z" fill="#090F13"/>
<path opacity="0.35" d="M342.283 386.979V426.262C342.283 426.779 342.268 427.296 342.223 427.797C212.497 370.575 46.3293 359.705 46.3293 359.705V306.451C186.717 312.167 285.931 354.537 342.283 386.979Z" fill="#97B3E2"/>
<path d="M471.796 100.731L434.973 120.723L447.125 133.371L482.108 118.169L471.796 100.731Z" fill="#FFA49C"/>
<path d="M556.743 100.306C553.671 92.7353 547.237 87.3384 543.891 79.9044C538.43 67.7576 542.248 52.7528 536.407 40.8188C533.168 34.1905 527.023 29.3866 520.589 28.444C514.718 27.5927 504.345 26.2853 502.185 36.3797L502.17 36.4405C498.732 37.1094 495.386 40.8644 494.352 44.4978C493.181 48.6329 493.698 53.2848 494.474 57.7088C495.249 62.1327 496.284 66.587 496.116 71.0109C495.797 79.0682 491.599 85.8181 487.675 92.2336C483.751 98.649 479.827 105.749 480.207 113.867C480.633 123.216 486.96 131.699 494.443 136.032C501.927 140.365 510.383 141.231 518.505 141.155C525.608 141.094 532.742 140.349 539.297 137.704C545.853 135.059 551.83 130.377 555.389 123.627C558.948 116.862 559.815 107.907 556.743 100.306Z" fill="#343256"/>
<path d="M500.314 93.1606C502.778 94.8937 504.908 92.735 507.874 92.7958C511.646 92.8718 515.828 94.4224 518.977 91.8532C518.901 88.1134 518.657 79.2808 519.007 75.541C519.007 75.4497 519.023 75.3585 519.038 75.2825C519.311 72.3789 519.692 69.4752 520.209 66.6019C520.254 66.3131 520.315 66.009 520.376 65.7354C520.391 65.6898 520.391 65.6594 520.391 65.6137C520.467 65.1881 520.543 64.7776 520.635 64.3519C520.848 63.3182 521.076 62.3148 521.304 61.2962C521.41 60.8554 521.502 60.4145 521.623 59.9736C520.376 57.1764 519.54 54.1055 519.159 50.9434C516.011 52.2508 512.954 53.847 510.201 56.097C509.851 58.8487 509.349 61.6763 508.71 64.5496C508.695 64.6408 508.68 64.732 508.649 64.8384C507.843 68.4262 506.596 73.063 505.364 76.818C505.029 77.8365 504.725 78.8095 504.375 79.6456C500.269 89.0864 502.063 90.0745 500.314 93.1606Z" fill="#FFA49C"/>
<path d="M518.308 65.1432C515.342 76.7579 505.592 79.6768 504.375 79.6464C505.79 75.6481 507.478 69.3695 508.497 64.8088C509.166 61.8443 509.699 58.9102 510.109 56.0826C512.497 53.7566 515.114 52.0539 517.806 50.6553C518.003 53.7718 518.597 56.7819 519.555 59.5183C519.448 59.9592 519.342 60.4001 519.235 60.8409C519.007 61.8595 518.779 62.8781 518.566 63.8966C518.46 64.3071 518.384 64.7176 518.308 65.1432Z" fill="#F07784"/>
<path d="M500.314 71.7705C503.478 75.1302 510.429 74.9174 514.642 73.0627C518.855 71.208 521.289 68.4563 523.494 64.3973C523.616 64.154 523.753 63.9108 523.859 63.6675C523.844 63.1203 523.844 62.573 523.874 62.0257C523.95 60.551 524.194 59.0764 524.392 57.6018C524.741 55.1542 524.985 52.6153 524.224 50.2742C523.312 47.3857 521 45.1813 518.353 43.6611C513.045 41.3807 506.611 39.678 504.558 39.1764C504.193 39.0851 503.843 39.3132 503.767 39.678L502.733 45.3638V45.379C502.626 46.1999 502.474 47.036 502.292 47.8266C501.318 51.9768 499.478 55.8839 498.641 60.0646C497.835 64.23 497.409 68.6692 500.314 71.7705Z" fill="#FFA49C"/>
<path d="M524.255 56.3406C524.392 55.4436 524.741 54.4403 525.578 54.1362C526.414 53.8474 527.327 54.4099 527.905 55.0788C529.396 56.8118 529.654 59.5027 528.513 61.4942C527.388 63.4857 524.954 64.6411 522.688 64.2611C523.084 61.6614 523.844 58.925 524.255 56.3406Z" fill="#FFA49C"/>
<path d="M508.026 58.4228C508.056 58.5445 507.722 58.6813 507.235 58.6205C506.733 58.5749 506.064 58.3316 505.455 57.7235C505.455 57.7083 505.44 57.6931 505.425 57.6779C505.075 57.2827 504.862 56.8722 504.756 56.4769C504.588 55.9144 504.634 55.4279 504.74 55.1847C504.801 55.0479 504.862 54.9871 504.938 55.0023C504.969 55.0023 504.999 55.0175 505.045 55.0479C505.151 55.1847 505.273 55.5192 505.47 55.9296C505.623 56.2337 505.82 56.5529 506.094 56.8722C506.124 56.9178 506.155 56.9482 506.185 56.9786C506.596 57.4499 507.098 57.7539 507.478 57.9668C507.813 58.1644 508.041 58.286 508.026 58.4228Z" fill="#DC6478"/>
<path d="M512.543 60.8256C508.771 61.3272 504.375 60.6431 502.687 59.9134C502.109 59.655 501.455 60.0958 501.455 60.6887C501.516 71.7562 511.25 66.6329 513.212 62.057C513.501 61.3881 513.273 60.7191 512.543 60.8256Z" fill="white"/>
<path d="M517.79 47.9335C515.95 46.5957 514.368 45.5619 511.995 46.1244C511.326 46.2764 511.341 47.1429 512.224 47.3254C514.627 47.8119 515.403 47.9183 517.395 48.9977C518.277 49.4841 518.855 48.7088 517.79 47.9335Z" fill="#343256"/>
<path d="M502.079 46.3061C502.991 45.6068 504.178 45.6068 505.197 45.6524C505.881 45.6828 506.307 46.3669 505.455 46.6558C503.128 47.4463 503.143 47.1575 502.063 47.7047C501.303 48.1 501.029 47.1118 502.079 46.3061Z" fill="#343256"/>
<path d="M513.973 51.0803C514.247 50.8978 514.688 51.0803 514.809 51.3539C515.083 51.9468 515.022 52.6917 514.672 53.239C514.49 53.5279 514.079 53.5887 513.805 53.4063C513.684 53.315 513.593 53.2086 513.562 53.0718C513.258 52.4637 513.395 51.4755 513.973 51.0803Z" fill="#343256"/>
<path d="M503.189 50.5637C503.463 50.3812 503.904 50.5637 504.026 50.8373C504.299 51.4302 504.239 52.1751 503.889 52.7224C503.706 53.0113 503.295 53.0721 503.022 52.8897C502.9 52.7984 502.824 52.692 502.778 52.5552C502.474 51.9471 502.611 50.9437 503.189 50.5637Z" fill="#343256"/>
<path d="M474.853 445.631C460.769 449.614 446.608 450.693 432.144 448.854C430.394 448.626 429.558 446.573 430.683 445.205C432.935 442.469 435.672 443.137 438.806 442.149C440.083 441.739 442.867 438.501 444.159 438.136C447.262 437.254 449.331 436.038 451.962 434.335C456.282 431.538 458.898 426.947 460.008 422.204C461.103 417.46 460.829 412.55 460.297 407.731C463.05 408.233 466.016 407.792 468.465 406.515C471.689 414.83 473.803 424.56 474.579 433.94C474.944 437.953 475.035 441.891 474.853 445.631Z" fill="#F08880"/>
<path d="M588.334 426.642C587.741 430.397 587.132 434.167 586.524 437.922C586.113 440.537 585.642 443.289 583.969 445.356C581.581 448.306 577.429 449.066 573.656 449.37C568.637 449.811 563.603 449.811 558.568 449.431C556.332 449.248 555.815 446.117 557.899 445.296C557.914 445.296 557.929 445.28 557.96 445.28C559.663 444.611 561.534 444.399 563.268 443.791C565.169 443.122 566.903 441.981 568.272 440.522C568.455 440.324 568.652 440.112 568.82 439.899C570.173 438.272 571.132 436.296 571.512 434.213C572.333 429.759 570.691 425.213 568.516 421.23C566.356 417.247 563.633 413.553 561.99 409.327C566.143 409.296 570.402 408.977 574.113 407.092C575.649 410.147 576.927 411.288 580.121 412.778C580.836 413.112 583.771 413.462 584.44 413.842C585.627 414.556 586.676 415.408 587.437 416.548C589.353 419.451 588.882 423.222 588.334 426.642Z" fill="#F08880"/>
<path d="M580.227 409.387C577.368 415.62 567.512 422.005 562.173 423.404C526.536 370.682 506.429 306.938 494.215 244.608C478.899 302.56 479.842 365.407 479.598 419.467C475.218 419.831 463.415 420.151 459.035 420.516C441.148 346.358 445.452 255.553 468.845 183.007L468.86 182.946L475.279 166.528L476.997 160.948L495.097 160.538L502.915 158.182L509.045 160.219L517.654 175.71C518.597 176.273 520.042 179.131 521.274 182.034C524.741 190.274 526.703 199 528.194 207.833C528.848 211.694 529.411 215.556 529.882 219.432C530.217 222.093 530.506 224.753 530.78 227.429C533.183 251.358 545.929 349.976 580.227 409.387Z" fill="#4D6098"/>
<path d="M588.334 426.642C587.741 430.397 587.132 434.167 586.524 437.922C586.113 440.537 585.642 443.289 583.969 445.356C581.581 448.306 577.429 449.066 573.656 449.37C568.637 449.811 563.603 449.811 558.568 449.431C556.332 449.248 555.815 446.117 557.899 445.296C557.914 445.296 557.929 445.28 557.96 445.28C559.663 444.611 561.534 444.399 563.268 443.791C565.169 443.122 566.903 441.981 568.272 440.522C568.455 440.324 568.652 440.112 568.82 439.899C569.489 440.066 571.983 439.017 574.478 439.473C577.9 440.112 581.307 438.333 582.433 435.034C582.478 434.912 582.524 434.775 582.554 434.639C584.638 428.026 585.946 420.637 584.44 413.872C585.627 414.587 586.676 415.438 587.437 416.578C589.353 419.451 588.882 423.222 588.334 426.642Z" fill="#1B1B30"/>
<path d="M474.853 445.631C460.769 449.614 443.718 450.48 429.254 448.641C427.505 448.413 426.44 446.117 427.794 444.992C433.071 440.614 439.429 440.112 444.159 438.136C449.194 442.073 454.958 443.502 461.225 442.271C466.487 441.237 471.309 438.166 474.579 433.955C474.944 437.953 475.035 441.891 474.853 445.631Z" fill="#1B1B30"/>
<path d="M474.959 202.133C478.884 206.374 481.941 211.208 487.203 213.823C488.207 218.718 489.622 223.553 490.686 228.387C492.694 237.539 494.58 246.706 496.056 255.965C496.269 257.333 498.352 256.755 498.124 255.387C496.725 246.585 494.961 237.858 493.059 229.163C491.949 224.1 490.443 218.992 489.378 213.854L489.089 212.349C489.089 212.349 489.089 212.349 489.074 212.349C488.466 209.126 488.07 205.872 488.101 202.619C488.101 201.236 485.956 201.236 485.941 202.619C485.926 205.462 486.215 208.274 486.686 211.072C482.549 208.411 479.857 204.291 476.48 200.628C475.537 199.594 474.032 201.114 474.959 202.133Z" fill="#293960"/>
<path d="M502.063 84.4492L497.866 91.6856L480.207 121.741C479.614 121.163 478.792 119.993 478.275 119.415C469.423 109.746 471.796 100.716 471.796 100.716C484.998 88.9948 495.554 85.6958 499.919 84.7837C501.044 84.5556 501.744 84.4796 501.987 84.4492C502.003 84.4492 502.003 84.4492 502.003 84.4492C502.033 84.4492 502.063 84.4492 502.063 84.4492Z" fill="white"/>
<path d="M529.015 121.756C527.449 123.961 525.669 125.998 523.783 127.929C523.327 128.385 522.886 128.901 522.43 129.449C515.327 138.722 512.634 151.112 510.064 162.119C504.421 163.229 497.12 164.08 490.656 163.639C485.819 163.289 481.211 162.529 476.922 161.359C476.906 161.344 476.906 161.344 476.906 161.344C476.45 146.81 476.633 132.945 478.29 123.489C478.351 123.231 478.382 122.957 478.427 122.714C478.64 121.589 478.853 120.495 479.081 119.43C484.314 95.2432 494.93 87.6116 499.66 85.3464C500.025 85.1792 500.36 85.0271 500.649 84.9207C501.075 84.7687 501.516 84.6319 501.957 84.4798C501.972 84.4798 501.972 84.4798 501.972 84.4798C502.003 84.4646 502.033 84.4646 502.033 84.4646H502.048C502.079 84.4494 502.14 84.4494 502.17 84.4494C503.539 84.267 504.923 84.2062 506.307 84.2518C511.463 84.4038 515.965 83.3853 521.091 83.9934C521.182 84.0086 521.289 84.0238 521.395 84.039C522.384 84.1758 523.327 84.419 524.255 84.7535C524.255 84.7535 524.27 84.7535 524.285 84.7687C524.346 84.7839 524.528 84.8295 524.817 84.9207C526.612 85.4984 532.392 87.7028 535.48 93.0693C538.704 98.6486 539.024 107.618 529.015 121.756Z" fill="white"/>
<path d="M524.833 84.9209L523.144 86.2435C520.817 88.0678 508.893 97.1893 502.885 97.1893C500.375 97.1893 499.158 95.8362 498.641 95.0153C498.063 94.1032 497.82 93.0238 497.865 91.686C497.942 90.0137 498.535 87.9309 499.66 85.3313C499.752 85.1489 499.812 84.9817 499.904 84.784C501.029 84.556 501.729 84.48 501.972 84.4496C501.987 84.4496 501.987 84.4496 501.987 84.4496C502.018 84.4344 502.048 84.4344 502.048 84.4344H502.063C502.094 84.4192 502.155 84.4192 502.185 84.4192C503.554 84.2367 504.938 84.1759 506.322 84.2215C511.478 84.3736 515.98 83.355 521.106 83.9631C521.198 83.9783 521.304 83.9935 521.41 84.0087C522.399 84.1455 523.342 84.3888 524.27 84.7232C524.27 84.7232 524.285 84.7232 524.3 84.7384C524.361 84.784 524.544 84.8296 524.833 84.9209Z" fill="white"/>
<path d="M510.246 91.5951C513.836 89.5731 517.547 86.9279 519.661 85.362C520.741 84.5563 521.41 84.0394 521.41 84.0394C520.908 83.4769 520.376 83.0057 519.813 82.6104C513.456 78.2625 503.25 84.3283 503.25 84.3283C502.52 85.8029 501.957 87.0951 501.562 88.2049C498.459 96.6575 504.162 95.0308 510.246 91.5951Z" fill="#FFA49C"/>
<path d="M478.716 124.888C477.545 121.179 477.454 117.135 478.488 113.395C479.507 109.64 481.637 106.205 484.542 103.62C484.998 107.36 484.177 111.145 483.036 114.733C481.91 118.336 480.344 121.498 478.716 124.888Z" fill="#DF4F4F"/>
<path d="M479.872 127.671C480.207 127.671 480.541 127.473 480.694 127.2C480.815 126.972 480.8 126.744 480.633 126.5C477.332 121.362 478.077 115.083 482.853 107.832C483.005 107.588 483.036 107.36 482.914 107.132C482.762 106.859 482.427 106.661 482.093 106.661C481.895 106.661 481.637 106.722 481.424 107.041C477.91 112.377 474.67 120.222 479.203 127.291C479.416 127.595 479.69 127.671 479.872 127.671Z" fill="#B12F2F"/>
<path d="M575.466 408.734C575.755 408.734 576.075 408.551 576.242 408.278C576.349 408.11 576.44 407.822 576.273 407.472C568.135 391.236 560.865 373.692 554.644 355.312C549.853 341.144 545.442 325.759 541.153 308.245L539.967 303.426C536.438 289.06 532.772 274.207 530.445 259.369C529.259 251.768 528.605 243.756 527.966 236.003C526.141 213.701 524.27 190.624 509.486 172.639C509.349 172.457 509.182 172.381 508.999 172.381C508.725 172.381 508.421 172.609 508.269 172.928C508.178 173.111 508.071 173.491 508.376 173.856C513.349 179.906 517.121 187.036 519.92 195.656L520.254 196.705L519.311 196.127C513.958 192.843 508.178 188.556 505.927 181.639C505.759 181.122 505.318 181.077 505.151 181.077C504.862 181.077 504.573 181.214 504.421 181.411C504.299 181.578 504.269 181.791 504.36 182.034C506.885 189.772 513.44 194.516 519.524 198.149C519.661 198.225 519.798 198.271 519.92 198.271C520.026 198.271 520.118 198.24 520.224 198.195L520.665 197.982L520.802 198.453C522.871 205.583 524.285 213.534 525.259 223.492C525.608 227.003 525.913 230.5 526.232 233.996C527.342 246.28 528.483 258.989 530.962 271.395C534.415 288.604 538.613 305.326 542.278 319.419C550.933 352.773 561.61 381.856 574.888 408.369C575.025 408.612 575.208 408.734 575.466 408.734Z" fill="#293960"/>
<path d="M379.624 100.579C400.918 75.7383 426.333 62.5729 436.357 71.1775L466.929 97.3714L389.799 187.309L359.227 161.115C349.189 152.526 358.315 125.42 379.624 100.579Z" fill="#FFD161"/>
<path d="M456.51 144.819C453.742 148.939 450.593 153.104 447.125 157.209C446.943 157.452 446.73 157.68 446.532 157.923C425.223 182.764 399.823 195.914 389.784 187.325C379.745 178.72 388.887 151.63 410.196 126.789C431.505 101.948 456.905 88.7826 466.929 97.372C475.203 104.472 470.427 124.174 456.51 144.819Z" fill="#F8BC38"/>
<g opacity="0.5">
<path opacity="0.5" d="M419.945 121.24C419.9 121.665 417.223 123.839 416.858 124.235C415.413 125.785 414.013 127.351 412.629 128.963C409.526 132.581 406.591 136.336 403.853 140.243C399.67 146.217 395.883 152.542 393.009 159.246C390.058 166.102 385.525 178.173 392.142 184.376C392.796 184.999 393.906 184.087 393.237 183.463C385.799 176.485 393.13 161.693 396.781 154.594C400.248 147.814 404.522 141.444 409.192 135.424C411.656 132.246 414.257 129.175 416.964 126.211C417.405 125.74 421.269 122.395 421.375 121.376C421.451 120.464 420.036 120.328 419.945 121.24Z" fill="#EC9600"/>
</g>
<g opacity="0.5">
<path opacity="0.5" d="M434.212 116.892C438.41 113.547 452.814 101.507 458.654 107.74C462.959 112.346 457.924 122.364 455.734 126.864C446.988 144.849 432.311 161.693 415.671 172.791C414.911 173.293 415.823 174.387 416.584 173.886C427.003 166.938 435.946 157.832 443.718 148.057C450.684 139.285 457.742 129.145 460.632 118.153C461.772 113.805 462.594 106.934 457.118 105.186C449.118 102.632 438.897 111.343 433.3 115.782C432.6 116.375 433.497 117.454 434.212 116.892Z" fill="#EC9600"/>
</g>
<path d="M435.124 148.16C443.079 138.885 446.492 128.767 442.749 125.559C439.005 122.352 429.522 127.27 421.568 136.545C413.614 145.819 410.2 155.938 413.944 159.146C417.687 162.353 427.17 157.435 435.124 148.16Z" fill="#1B1B30"/>
<path opacity="0.5" d="M342.314 213.062C342.314 213.062 335.667 222.047 322.298 235.592C311.803 246.249 297.141 259.719 278.28 273.842C229.335 310.571 152.175 351.8 46.3141 359.721V306.466C46.3141 306.466 161.757 304.52 275.482 215.13C287.482 205.704 299.452 195.306 311.255 183.843C321.75 173.657 332.108 162.62 342.268 150.687L342.314 213.062Z" fill="#FFC700"/>
<path opacity="0.5" d="M466.929 97.3718C456.905 88.7672 431.49 101.933 410.196 126.773C407.975 129.343 405.906 131.957 403.96 134.572L377.89 167.364L373.281 173.171L359.897 189.985L354.071 197.313C349.752 202.725 345.888 207.985 342.314 213.063C342.299 213.078 342.299 213.093 342.268 213.108V150.687C345.371 146.141 348.732 141.474 352.413 136.67L354.147 134.42L367.091 117.576L367.106 117.561C368.612 115.159 370.239 112.726 371.988 110.294C374.316 107.056 376.871 103.802 379.624 100.595C400.933 75.7539 426.333 62.5885 436.357 71.1931L466.929 97.3718Z" fill="#FFC700"/>
<path opacity="0.5" d="M466.929 97.3722C456.89 88.7676 431.49 101.933 410.196 126.774C407.975 129.343 405.906 131.958 403.96 134.573L373.281 173.172L359.227 161.131C351.47 154.488 355.166 136.762 367.091 117.591L367.106 117.576L367.121 117.561C367.638 116.725 368.171 115.889 368.718 115.068C369.007 114.612 369.327 114.156 369.631 113.7C370.65 112.164 371.745 110.629 372.871 109.093C373.388 108.379 373.92 107.679 374.468 106.965C374.909 106.387 375.35 105.825 375.806 105.247C376.126 104.837 376.46 104.411 376.795 104C377.175 103.529 377.555 103.043 377.951 102.571C378.498 101.918 379.046 101.264 379.609 100.61C400.902 75.7694 426.318 62.6193 436.341 71.2087L466.929 97.3722Z" fill="#FFC700"/>
<path d="M427.063 73.8076C414.941 78.186 404.051 84.9815 394.773 93.9357C393.465 95.1975 395.275 97.3867 396.598 96.1249C405.709 87.3226 416.356 80.6792 428.265 76.3921C429.984 75.7536 428.767 73.1843 427.063 73.8076Z" fill="white"/>
<path d="M456.51 144.819C453.742 148.939 450.593 153.104 447.125 157.209C441.482 154.442 434.988 153.378 428.797 154.412C431.459 151.994 433.604 149.653 436.615 147.677C439.642 145.701 443.019 144.196 446.593 143.831C449.878 143.451 453.24 143.937 456.51 144.819Z" fill="#3E3E63"/>
<path d="M519.905 127.351C499.752 149.106 480.116 151.143 480.116 151.143L424.995 150.322L423.717 145.169L475.401 134.268C490.96 126.834 499.615 118.732 504.315 112.727C513.273 116.953 518.125 122.821 519.905 127.351Z" fill="#FFA49C"/>
<path d="M416.751 145.64C418.637 148.179 420.873 150.49 423.367 152.451C424.706 153.53 426.227 154.549 427.946 154.579C429.223 154.61 430.44 154.093 431.626 153.576C433.467 152.77 438.456 151.159 440.296 150.338L439.094 142.691C436.387 139.818 430.364 136.488 426.927 134.618C426.607 134.436 426.212 134.649 426.181 135.014C426.014 136.944 426.774 137.811 430.121 140.684C425.953 141.155 421.786 141.627 417.633 142.098C417.192 142.143 416.721 142.204 416.371 142.478C415.443 143.223 416.051 144.698 416.751 145.64Z" fill="#FFA49C"/>
<path d="M343.303 151.721C340.139 155.75 336.701 159.581 333.264 163.366C301.491 198.393 263.876 228.95 222.582 252.696H222.566C218.414 252.665 221.228 250.035 221.228 250.035V250.02C223.555 248.698 225.852 247.314 228.148 245.931C258.218 227.733 286.189 206.024 311.468 181.624C321.902 171.56 332.275 161.086 341.249 149.669C342.405 148.209 344.428 150.262 343.303 151.721Z" fill="white"/>
<path opacity="0.75" d="M322.298 235.577C311.803 246.234 297.141 259.704 278.28 273.827C278.737 254.231 277.794 234.589 275.482 215.115C287.482 205.689 299.452 195.291 311.255 183.828C317.02 200.566 320.731 217.988 322.298 235.577Z" fill="#9EB4C8"/>
<path d="M39.5153 307.911C48.2762 307.911 56.8546 307.06 65.5699 306.026C84.1107 303.806 102.712 300.766 120.569 295.186C122.333 294.639 121.588 291.842 119.808 292.404C101.845 298.014 83.0917 301.07 64.4291 303.274C56.0941 304.247 47.896 305.022 39.5153 305.022C37.6597 305.022 37.6597 307.911 39.5153 307.911Z" fill="white"/>
<path d="M377.89 167.364L373.281 173.171L359.897 189.985L354.162 134.42L367.106 117.576L367.121 117.561C368.627 115.159 370.254 112.726 372.004 110.294L377.89 167.364Z" fill="#FFF1B6"/>
<rect width="263" height="37" transform="translate(24 367)" fill="#FFC700"/>
<path d="M43.464 389.66V386.744H49.314V384.476H43.464V381.74H50.088V379.4H40.566V392H50.322V389.66H43.464ZM56.999 392.144C59.033 392.144 60.635 391.244 61.337 389.696L59.159 388.508C58.637 389.444 57.863 389.84 56.981 389.84C55.559 389.84 54.443 388.85 54.443 387.158C54.443 385.466 55.559 384.476 56.981 384.476C57.863 384.476 58.637 384.89 59.159 385.808L61.337 384.638C60.635 383.054 59.033 382.172 56.999 382.172C53.849 382.172 51.599 384.242 51.599 387.158C51.599 390.074 53.849 392.144 56.999 392.144ZM63.9107 382.316L63.7667 386.204C63.6767 388.04 63.5687 389.714 62.2367 389.714C62.1107 389.714 61.9667 389.696 61.8227 389.678L61.6787 391.982C62.2367 392.126 62.7047 392.198 63.1367 392.198C65.5307 392.198 66.0887 389.786 66.2327 386.33L66.3227 384.62H69.3827V392H72.1907V382.316H63.9107ZM74.891 392H77.483L82.181 386.24V392H84.971V382.316H82.397L77.681 388.076V382.316H74.891V392ZM97.376 392.144C99.41 392.144 101.012 391.244 101.714 389.696L99.536 388.508C99.014 389.444 98.24 389.84 97.358 389.84C95.936 389.84 94.82 388.85 94.82 387.158C94.82 385.466 95.936 384.476 97.358 384.476C98.24 384.476 99.014 384.89 99.536 385.808L101.714 384.638C101.012 383.054 99.41 382.172 97.376 382.172C94.226 382.172 91.976 384.242 91.976 387.158C91.976 390.074 94.226 392.144 97.376 392.144ZM110.278 392H113.59L109.972 386.96L113.356 382.316H110.368L107.74 386.078H106.228V382.316H103.42V392H106.228V388.328H107.686L110.278 392ZM119.206 392.144C122.284 392.144 124.516 390.074 124.516 387.158C124.516 384.242 122.284 382.172 119.206 382.172C116.128 382.172 113.878 384.242 113.878 387.158C113.878 390.074 116.128 392.144 119.206 392.144ZM119.206 389.84C117.802 389.84 116.722 388.832 116.722 387.158C116.722 385.484 117.802 384.476 119.206 384.476C120.61 384.476 121.672 385.484 121.672 387.158C121.672 388.832 120.61 389.84 119.206 389.84ZM134.232 382.316H124.89V384.62H128.166V392H130.956V384.62H134.232V382.316ZM141.633 382.316V386.384C141.003 386.69 140.301 386.852 139.563 386.852C138.447 386.852 137.781 386.384 137.781 385.178V382.316H134.973V385.358C134.973 387.896 136.377 389.012 138.933 389.012C139.995 389.012 140.877 388.778 141.633 388.4V392H144.441V382.316H141.633ZM152.235 392H155.025V388.382H159.237V392H162.045V382.316H159.237V386.096H155.025V382.316H152.235V392ZM174.147 387.194C174.147 384.08 171.951 382.172 169.107 382.172C166.155 382.172 163.941 384.26 163.941 387.158C163.941 390.038 166.119 392.144 169.467 392.144C171.213 392.144 172.563 391.604 173.463 390.578L171.969 388.958C171.303 389.588 170.565 389.894 169.539 389.894C168.063 389.894 167.037 389.156 166.767 387.95H174.093C174.111 387.716 174.147 387.41 174.147 387.194ZM169.125 384.296C170.385 384.296 171.303 385.088 171.501 386.312H166.731C166.929 385.07 167.847 384.296 169.125 384.296ZM181.397 382.316V392H184.187V384.62H188.219V392H191.027V382.316H181.397ZM198.255 392.144C201.333 392.144 203.565 390.074 203.565 387.158C203.565 384.242 201.333 382.172 198.255 382.172C195.177 382.172 192.927 384.242 192.927 387.158C192.927 390.074 195.177 392.144 198.255 392.144ZM198.255 389.84C196.851 389.84 195.771 388.832 195.771 387.158C195.771 385.484 196.851 384.476 198.255 384.476C199.659 384.476 200.721 385.484 200.721 387.158C200.721 388.832 199.659 389.84 198.255 389.84ZM217.484 392L217.448 382.316H214.82L211.526 387.914L208.43 382.316H205.496V392H208.034V386.186L210.86 391.064H212.048L214.946 386.204V392H217.484ZM224.71 392.144C227.788 392.144 230.02 390.074 230.02 387.158C230.02 384.242 227.788 382.172 224.71 382.172C221.632 382.172 219.382 384.242 219.382 387.158C219.382 390.074 221.632 392.144 224.71 392.144ZM224.71 389.84C223.306 389.84 222.226 388.832 222.226 387.158C222.226 385.484 223.306 384.476 224.71 384.476C226.114 384.476 227.176 385.484 227.176 387.158C227.176 388.832 226.114 389.84 224.71 389.84ZM239.71 382.316H231.952V392H234.742V384.62H239.71V382.316ZM244.96 382.172C243.412 382.172 241.846 382.586 240.784 383.342L241.792 385.304C242.494 384.746 243.556 384.404 244.582 384.404C246.094 384.404 246.814 385.106 246.814 386.312H244.582C241.63 386.312 240.424 387.5 240.424 389.21C240.424 390.884 241.774 392.144 244.042 392.144C245.464 392.144 246.472 391.676 246.994 390.794V392H249.622V386.474C249.622 383.54 247.912 382.172 244.96 382.172ZM244.744 390.254C243.754 390.254 243.16 389.786 243.16 389.084C243.16 388.436 243.574 387.95 244.888 387.95H246.814V388.94C246.49 389.822 245.68 390.254 244.744 390.254ZM261.475 387.194C261.475 384.08 259.279 382.172 256.435 382.172C253.483 382.172 251.269 384.26 251.269 387.158C251.269 390.038 253.447 392.144 256.795 392.144C258.541 392.144 259.891 391.604 260.791 390.578L259.297 388.958C258.631 389.588 257.893 389.894 256.867 389.894C255.391 389.894 254.365 389.156 254.095 387.95H261.421C261.439 387.716 261.475 387.41 261.475 387.194ZM256.453 384.296C257.713 384.296 258.631 385.088 258.829 386.312H254.059C254.257 385.07 255.175 384.296 256.453 384.296ZM271.429 382.316H262.087V384.62H265.363V392H268.153V384.62H271.429V382.316Z" fill="black"/>
</svg>
