<svg width="135" height="25" viewBox="0 0 135 25" fill="none" xmlns="http://www.w3.org/2000/svg">
<path d="M14.599 24H21.595L16.612 16.74C19.483 15.354 21.133 12.846 21.133 9.447C21.133 4.167 17.173 0.899998 10.87 0.899998H0.31V24H6.844V17.862H10.408L14.599 24ZM14.533 9.447C14.533 11.559 13.18 12.813 10.474 12.813H6.844V6.048H10.474C13.18 6.048 14.533 7.302 14.533 9.447ZM41.3367 24.462C48.7287 24.462 54.1737 19.38 54.1737 12.45C54.1737 5.52 48.7287 0.437998 41.3367 0.437998C33.9447 0.437998 28.4997 5.52 28.4997 12.45C28.4997 19.38 33.9447 24.462 41.3367 24.462ZM41.3367 19.05C37.8387 19.05 35.0997 16.443 35.0997 12.45C35.0997 8.457 37.8387 5.85 41.3367 5.85C44.8347 5.85 47.5737 8.457 47.5737 12.45C47.5737 16.443 44.8347 19.05 41.3367 19.05ZM69.4806 18.951L73.1106 14.628H79.8426V10.041H76.9716L81.5586 4.563V0.866999H61.6596V5.949H73.4076L70.1076 9.909H63.1116V14.529H66.2136L61.3626 20.304V24H82.0536V18.951H69.4806ZM102.991 5.949V0.899998H88.9655V5.949H92.7275V18.951H88.9655V24H102.991V18.951H99.2615V5.949H102.991ZM126.982 24H134.572L124.639 11.13L134.077 0.899998H126.883L117.94 10.503V0.899998H111.472V24H117.94V18.225L120.382 15.618L126.982 24Z" fill="#FFC700"/>
</svg>
