<svg width="36" height="36" viewBox="0 0 36 36" fill="none" xmlns="http://www.w3.org/2000/svg">
<path d="M32.565 30.4351L27 24.9151C29.1601 22.2217 30.2062 18.803 29.9232 15.3621C29.6402 11.9211 28.0495 8.71927 25.4783 6.41507C22.907 4.11086 19.5507 2.87937 16.0994 2.97381C12.648 3.06825 9.36406 4.48144 6.92269 6.92281C4.48132 9.36418 3.06812 12.6482 2.97368 16.0995C2.87924 19.5508 4.11074 22.9072 6.41495 25.4784C8.71915 28.0496 11.9209 29.6403 15.3619 29.9233C18.8029 30.2064 22.2216 29.1602 24.915 27.0001L30.435 32.5201C30.5744 32.6607 30.7403 32.7723 30.9231 32.8484C31.1059 32.9246 31.302 32.9638 31.5 32.9638C31.698 32.9638 31.8941 32.9246 32.0768 32.8484C32.2596 32.7723 32.4255 32.6607 32.565 32.5201C32.8353 32.2404 32.9865 31.8666 32.9865 31.4776C32.9865 31.0886 32.8353 30.7148 32.565 30.4351ZM16.5 27.0001C14.4233 27.0001 12.3932 26.3843 10.6665 25.2305C8.93978 24.0768 7.59396 22.4369 6.79924 20.5183C6.00452 18.5997 5.79659 16.4885 6.20173 14.4517C6.60688 12.4149 7.60691 10.5439 9.07536 9.07548C10.5438 7.60703 12.4147 6.607 14.4515 6.20186C16.4883 5.79671 18.5995 6.00465 20.5182 6.79937C22.4368 7.59409 24.0767 8.9399 25.2304 10.6666C26.3842 12.3933 27 14.4234 27 16.5001C27 19.2849 25.8937 21.9556 23.9246 23.9247C21.9555 25.8939 19.2848 27.0001 16.5 27.0001Z" fill="#FFC700"/>
</svg>
