<svg width="54" height="41" viewBox="0 0 54 41" fill="none" xmlns="http://www.w3.org/2000/svg">
<path d="M13.6667 26.9997H21.6667C22.374 26.9997 23.0523 26.7187 23.5524 26.2186C24.0525 25.7185 24.3334 25.0403 24.3334 24.333C24.3334 23.6258 24.0525 22.9475 23.5524 22.4474C23.0523 21.9473 22.374 21.6663 21.6667 21.6663H13.6667C12.9595 21.6663 12.2812 21.9473 11.7811 22.4474C11.281 22.9475 11.0001 23.6258 11.0001 24.333C11.0001 25.0403 11.281 25.7185 11.7811 26.2186C12.2812 26.7187 12.9595 26.9997 13.6667 26.9997ZM45.6667 0.333008H8.3334C6.21167 0.333008 4.17684 1.17586 2.67655 2.67615C1.17626 4.17645 0.333405 6.21128 0.333405 8.33301V32.333C0.333405 34.4547 1.17626 36.4896 2.67655 37.9899C4.17684 39.4902 6.21167 40.333 8.3334 40.333H45.6667C47.7885 40.333 49.8233 39.4902 51.3236 37.9899C52.8239 36.4896 53.6667 34.4547 53.6667 32.333V8.33301C53.6667 6.21128 52.8239 4.17645 51.3236 2.67615C49.8233 1.17586 47.7885 0.333008 45.6667 0.333008ZM48.3334 32.333C48.3334 33.0403 48.0525 33.7185 47.5524 34.2186C47.0523 34.7187 46.374 34.9997 45.6667 34.9997H8.3334C7.62616 34.9997 6.94788 34.7187 6.44779 34.2186C5.94769 33.7185 5.66674 33.0403 5.66674 32.333V16.333H48.3334V32.333ZM48.3334 10.9997H5.66674V8.33301C5.66674 7.62576 5.94769 6.94749 6.44779 6.44739C6.94788 5.94729 7.62616 5.66634 8.3334 5.66634H45.6667C46.374 5.66634 47.0523 5.94729 47.5524 6.44739C48.0525 6.94749 48.3334 7.62576 48.3334 8.33301V10.9997Z" fill="#FFC700"/>
</svg>
