<svg width="54" height="54" viewBox="0 0 54 54" fill="none" xmlns="http://www.w3.org/2000/svg">
<path d="M52.56 36.5467L40.5067 24.52C40.7589 23.2917 40.884 22.0406 40.88 20.7867C40.8791 17.3484 40.0114 13.9659 38.3572 10.9517C36.703 7.93754 34.3156 5.38902 31.4158 3.54173C28.5159 1.69443 25.1972 0.607977 21.7663 0.382787C18.3354 0.157598 14.9031 0.80094 11.7867 2.25335C11.3918 2.43372 11.047 2.70774 10.7821 3.05164C10.5172 3.39553 10.3403 3.79889 10.2667 4.22668C10.1934 4.64905 10.2229 5.08286 10.3529 5.49137C10.4829 5.89987 10.7094 6.27102 11.0134 6.57335L22.6133 18.1467L17.8134 22.9467L6.24002 11.3467C5.93513 11.0475 5.56283 10.8259 5.15445 10.7006C4.74608 10.5753 4.31357 10.55 3.89335 10.6267C3.46824 10.6976 3.06664 10.8705 2.72297 11.1306C2.3793 11.3907 2.10378 11.7302 1.92002 12.12C0.462752 15.2467 -0.180031 18.6912 0.0514637 22.133C0.282958 25.5748 1.38121 28.9022 3.24405 31.8056C5.10689 34.7089 7.67381 37.094 10.706 38.7388C13.7382 40.3837 17.1371 41.2349 20.5867 41.2133C21.8406 41.2174 23.0917 41.0923 24.32 40.84L36.3467 52.8933C36.5946 53.1433 36.8895 53.3417 37.2145 53.4771C37.5394 53.6124 37.888 53.6821 38.24 53.6821C38.592 53.6821 38.9406 53.6124 39.2656 53.4771C39.5905 53.3417 39.8854 53.1433 40.1333 52.8933C40.3833 52.6454 40.5817 52.3505 40.7171 52.0256C40.8524 51.7006 40.9221 51.352 40.9221 51C40.9221 50.648 40.8524 50.2994 40.7171 49.9745C40.5817 49.6495 40.3833 49.3546 40.1333 49.1067L27.0667 36.04C26.7402 35.7157 26.3352 35.4813 25.8913 35.3598C25.4474 35.2383 24.9795 35.2338 24.5333 35.3467C23.2458 35.6915 21.9196 35.8707 20.5867 35.88C18.5921 35.8976 16.6138 35.5204 14.7657 34.7701C12.9176 34.0198 11.2362 32.9112 9.81839 31.5083C8.40057 30.1053 7.27435 28.4357 6.5046 26.5956C5.73485 24.7555 5.33679 22.7813 5.33335 20.7867C5.3299 19.8934 5.40126 19.0014 5.54668 18.12L16 28.6C16.2479 28.85 16.5429 29.0483 16.8678 29.1837C17.1928 29.3191 17.5413 29.3888 17.8934 29.3888C18.2454 29.3888 18.5939 29.3191 18.9189 29.1837C19.2438 29.0483 19.5388 28.85 19.7867 28.6L28.2667 20.04C28.7473 19.5428 29.016 18.8782 29.016 18.1867C29.016 17.4951 28.7473 16.8306 28.2667 16.3333L17.8934 5.88001C18.7749 5.73605 19.6668 5.6647 20.56 5.66668C24.5655 5.67375 28.4045 7.26986 31.2342 10.1046C34.064 12.9394 35.6534 16.7812 35.6534 20.7867C35.644 22.1196 35.4648 23.4458 35.12 24.7333C35.0071 25.1795 35.0117 25.6474 35.1332 26.0913C35.2547 26.5352 35.489 26.9402 35.8134 27.2667L48.88 40.3334C49.3822 40.8355 50.0632 41.1176 50.7733 41.1176C51.4835 41.1176 52.1645 40.8355 52.6667 40.3334C53.1688 39.8312 53.4509 39.1502 53.4509 38.44C53.4509 37.7299 53.1688 37.0488 52.6667 36.5467H52.56Z" fill="#FFC700"/>
</svg>
