<svg width="36" height="36" viewBox="0 0 36 36" fill="none" xmlns="http://www.w3.org/2000/svg">
<path d="M29.445 5.47546C29.2707 5.3345 29.0671 5.23437 28.849 5.18246C28.631 5.13054 28.4041 5.12815 28.185 5.17546C26.5821 5.51138 24.9275 5.51566 23.3229 5.18804C21.7184 4.86042 20.1979 4.20783 18.855 3.27046C18.6039 3.09627 18.3056 3.00293 18 3.00293C17.6944 3.00293 17.3961 3.09627 17.145 3.27046C15.8021 4.20783 14.2816 4.86042 12.677 5.18804C11.0725 5.51566 9.41784 5.51138 7.81499 5.17546C7.5959 5.12815 7.36899 5.13054 7.15094 5.18246C6.9329 5.23437 6.72926 5.3345 6.55499 5.47546C6.38096 5.61664 6.24077 5.79502 6.14473 5.99749C6.04869 6.19995 5.99923 6.42137 5.99999 6.64546V17.8205C5.99866 19.9711 6.51115 22.0909 7.4948 24.0034C8.47844 25.9159 9.90476 27.5657 11.655 28.8155L17.13 32.7155C17.384 32.8963 17.6881 32.9935 18 32.9935C18.3118 32.9935 18.6159 32.8963 18.87 32.7155L24.345 28.8155C26.0952 27.5657 27.5215 25.9159 28.5052 24.0034C29.4888 22.0909 30.0013 19.9711 30 17.8205V6.64546C30.0008 6.42137 29.9513 6.19995 29.8553 5.99749C29.7592 5.79502 29.619 5.61664 29.445 5.47546ZM27 17.8205C27.0011 19.4926 26.6029 21.1408 25.8385 22.628C25.074 24.1152 23.9654 25.3982 22.605 26.3705L18 29.6555L13.395 26.3705C12.0345 25.3982 10.926 24.1152 10.1615 22.628C9.39706 21.1408 8.99884 19.4926 8.99999 17.8205V8.37046C12.1446 8.63961 15.2941 7.91 18 6.28546C20.7059 7.91 23.8553 8.63961 27 8.37046V17.8205ZM20.31 14.3855L16.275 18.4355L14.94 17.0855C14.6575 16.803 14.2744 16.6443 13.875 16.6443C13.4755 16.6443 13.0924 16.803 12.81 17.0855C12.5275 17.3679 12.3689 17.751 12.3689 18.1505C12.3689 18.5499 12.5275 18.933 12.81 19.2155L15.21 21.6155C15.3494 21.7561 15.5153 21.8676 15.6981 21.9438C15.8809 22.02 16.077 22.0592 16.275 22.0592C16.473 22.0592 16.6691 22.02 16.8519 21.9438C17.0346 21.8676 17.2005 21.7561 17.34 21.6155L22.5 16.5005C22.7824 16.218 22.9411 15.8349 22.9411 15.4355C22.9411 15.036 22.7824 14.6529 22.5 14.3705C22.2175 14.088 21.8344 13.9293 21.435 13.9293C21.0355 13.9293 20.6524 14.088 20.37 14.3705L20.31 14.3855Z" fill="#FFC700"/>
</svg>
