<svg width="30" height="26" viewBox="0 0 30 26" fill="none" xmlns="http://www.w3.org/2000/svg">
<path d="M29.0171 0C28.9201 0 28.823 0 28.726 0.102362L0.582283 11.3622C-0.194094 11.6693 -0.194094 12.8976 0.582283 13.2047L7.08444 15.5591L11.0634 23.8504C11.1604 23.9528 11.2575 24.0551 11.4516 24.0551C11.5486 24.0551 11.6457 24.0551 11.7427 23.9528L15.4305 20.6772L11.3545 17.4016L11.6457 21.7008L8.73424 15.252L24.4559 5.32283L11.3545 17.4016L21.5445 25.5906C21.9327 25.8976 22.3208 26 22.612 26C23.3884 26 24.1647 25.4882 24.4559 24.5669L29.9876 1.33071C30.0846 0.511811 29.5994 0 29.0171 0Z" fill="#FFC700"/>
</svg>
