<svg width="31" height="30" viewBox="0 0 31 30" fill="none" xmlns="http://www.w3.org/2000/svg">
<path d="M15.0114 29.6842C23.302 29.6842 30.0228 23.0392 30.0228 14.8421C30.0228 6.64504 23.302 0 15.0114 0C6.72083 0 0 6.64504 0 14.8421C0 23.0392 6.72083 29.6842 15.0114 29.6842Z" fill="#2DAAE1"/>
<path d="M22.9962 6.8457C22.9259 6.8457 22.8557 6.85833 22.779 6.8836L4.25429 13.8436C3.73048 14.0394 3.74326 14.7783 4.27345 14.9552L8.56607 16.3889L11.1531 21.511C11.1531 21.511 11.1531 21.511 11.1531 21.5173L11.1595 21.5299C11.2042 21.6247 11.3065 21.6878 11.4087 21.6878C11.4725 21.6878 11.53 21.6689 11.5875 21.6247L14.0149 19.591L11.3064 17.5573L11.5172 20.2289L9.56896 16.2436L19.9172 10.0983L11.3192 17.5573L18.0265 22.591C18.25 22.7615 18.5055 22.8373 18.7611 22.8373C19.2912 22.8373 19.8023 22.4899 19.9492 21.9215L23.5775 7.58465C23.6733 7.19307 23.3667 6.8457 22.9962 6.8457Z" fill="white"/>
</svg>
