<svg width="36" height="36" viewBox="0 0 36 36" fill="none" xmlns="http://www.w3.org/2000/svg">
<path d="M34.5 18.75V26.25C34.5 26.6478 34.342 27.0294 34.0607 27.3107C33.7794 27.592 33.3978 27.75 33 27.75H31.5C31.5 28.9435 31.0259 30.0881 30.182 30.932C29.3381 31.7759 28.1935 32.25 27 32.25C25.8065 32.25 24.6619 31.7759 23.818 30.932C22.9741 30.0881 22.5 28.9435 22.5 27.75H13.5C13.5 28.9435 13.0259 30.0881 12.182 30.932C11.3381 31.7759 10.1935 32.25 9 32.25C7.80653 32.25 6.66193 31.7759 5.81802 30.932C4.97411 30.0881 4.5 28.9435 4.5 27.75H3C2.60217 27.75 2.22064 27.592 1.93934 27.3107C1.65804 27.0294 1.5 26.6478 1.5 26.25V8.25C1.5 7.05653 1.97411 5.91193 2.81802 5.06802C3.66193 4.22411 4.80653 3.75 6 3.75H19.5C20.6935 3.75 21.8381 4.22411 22.682 5.06802C23.5259 5.91193 24 7.05653 24 8.25V11.25H27C27.6986 11.25 28.3876 11.4127 29.0125 11.7251C29.6373 12.0375 30.1808 12.4911 30.6 13.05L34.2 17.85C34.2439 17.9152 34.2792 17.9858 34.305 18.06L34.395 18.225C34.4612 18.3923 34.4968 18.5701 34.5 18.75ZM10.5 27.75C10.5 27.4533 10.412 27.1633 10.2472 26.9166C10.0824 26.67 9.84811 26.4777 9.57402 26.3642C9.29993 26.2506 8.99833 26.2209 8.70736 26.2788C8.41639 26.3367 8.14912 26.4796 7.93934 26.6893C7.72956 26.8991 7.5867 27.1664 7.52882 27.4574C7.47094 27.7483 7.50065 28.0499 7.61418 28.324C7.72771 28.5981 7.91997 28.8324 8.16665 28.9972C8.41332 29.162 8.70333 29.25 9 29.25C9.39783 29.25 9.77936 29.092 10.0607 28.8107C10.342 28.5294 10.5 28.1478 10.5 27.75ZM21 8.25C21 7.85218 20.842 7.47064 20.5607 7.18934C20.2794 6.90804 19.8978 6.75 19.5 6.75H6C5.60217 6.75 5.22064 6.90804 4.93934 7.18934C4.65803 7.47064 4.5 7.85218 4.5 8.25V24.75H5.67C6.09177 24.286 6.60587 23.9152 7.17933 23.6615C7.75278 23.4078 8.37293 23.2767 9 23.2767C9.62707 23.2767 10.2472 23.4078 10.8207 23.6615C11.3941 23.9152 11.9082 24.286 12.33 24.75H21V8.25ZM24 17.25H30L28.2 14.85C28.0603 14.6637 27.8791 14.5125 27.6708 14.4084C27.4625 14.3042 27.2329 14.25 27 14.25H24V17.25ZM28.5 27.75C28.5 27.4533 28.412 27.1633 28.2472 26.9166C28.0824 26.67 27.8481 26.4777 27.574 26.3642C27.2999 26.2506 26.9983 26.2209 26.7074 26.2788C26.4164 26.3367 26.1491 26.4796 25.9393 26.6893C25.7296 26.8991 25.5867 27.1664 25.5288 27.4574C25.4709 27.7483 25.5006 28.0499 25.6142 28.324C25.7277 28.5981 25.92 28.8324 26.1666 28.9972C26.4133 29.162 26.7033 29.25 27 29.25C27.3978 29.25 27.7794 29.092 28.0607 28.8107C28.342 28.5294 28.5 28.1478 28.5 27.75ZM31.5 20.25H24V24.42C24.8853 23.6288 26.0473 23.2196 27.233 23.2814C28.4186 23.3432 29.5318 23.8711 30.33 24.75H31.5V20.25Z" fill="#FFC700"/>
</svg>
