<svg width="31" height="30" viewBox="0 0 31 30" fill="none" xmlns="http://www.w3.org/2000/svg">
<path d="M15.0342 29.6842C23.3248 29.6842 30.0456 23.0392 30.0456 14.8421C30.0456 6.64504 23.3248 0 15.0342 0C6.74366 0 0.0228271 6.64504 0.0228271 14.8421C0.0228271 23.0392 6.74366 29.6842 15.0342 29.6842Z" fill="#834995"/>
<path fill-rule="evenodd" clip-rule="evenodd" d="M19.4035 24.1641C19.2054 24.1136 18.8222 24.0505 18.4772 23.9052C12.3832 21.3094 7.96286 17.0652 5.44605 10.9578C4.60286 8.91151 5.48438 7.18098 7.60514 6.47993C7.98841 6.35362 8.3589 6.3473 8.73578 6.47993C9.64286 6.80835 11.9361 9.93467 11.9872 10.8694C12.0255 11.5831 11.5337 11.9747 11.0482 12.3031C10.1219 12.922 10.1219 13.7115 10.5116 14.5894C11.4059 16.5726 12.9262 17.9368 14.9 18.821C15.6155 19.1431 16.299 19.1115 16.7908 18.3789C17.6596 17.0778 18.7264 17.141 19.8953 17.9494C20.483 18.3536 21.0771 18.7515 21.6328 19.1936C22.3866 19.7936 23.3448 20.2926 22.8912 21.5557C22.4185 22.8568 20.7896 24.1768 19.4035 24.1641Z" fill="white"/>
<path fill-rule="evenodd" clip-rule="evenodd" d="M14.9256 6.15174C19.2055 6.297 22.8849 10.1686 22.8338 14.3433C22.8274 14.7538 22.9807 15.3602 22.3611 15.3475C21.767 15.3349 21.9267 14.7223 21.8692 14.3117C21.3007 9.87805 19.2502 7.78121 14.7979 7.10542C14.4274 7.04858 13.8652 7.13068 13.8972 6.64437C13.9355 5.93068 14.6062 6.19595 14.9256 6.15174Z" fill="white"/>
<path fill-rule="evenodd" clip-rule="evenodd" d="M20.6363 13.5919C20.5916 13.9014 20.7769 14.4256 20.2722 14.5014C19.5951 14.6025 19.7293 13.9898 19.659 13.5983C19.2055 10.9014 18.2473 9.90984 15.5005 9.30352C15.0981 9.2151 14.4657 9.27826 14.5679 8.65931C14.6701 8.07195 15.2322 8.27405 15.6602 8.32458C18.4134 8.64668 20.6619 11.0025 20.6363 13.5919Z" fill="white"/>
<path fill-rule="evenodd" clip-rule="evenodd" d="M18.5476 13.0992C18.5604 13.4402 18.522 13.8002 18.1132 13.8508C17.8194 13.8823 17.6214 13.6423 17.5958 13.3392C17.4808 12.2276 16.8868 11.5708 15.7625 11.3876C15.4239 11.3308 15.0918 11.2234 15.2515 10.775C15.3537 10.4718 15.6347 10.4402 15.9222 10.4339C17.1423 10.4087 18.5668 11.8487 18.5476 13.0992Z" fill="white"/>
</svg>
