<svg width="28" height="20" viewBox="0 0 28 20" fill="none" xmlns="http://www.w3.org/2000/svg">
<path d="M27.7 4.3C27.7 4.3 27.4 2.3 26.6 1.5C25.5 0.4 24.3 0.4 23.8 0.3C19.9 0 14 0 14 0C14 0 8.1 0 4.2 0.3C3.7 0.4 2.5 0.4 1.4 1.5C0.6 2.4 0.3 4.3 0.3 4.3C0.3 4.3 0 6.6 0 8.9V11.1C0 13.4 0.3 15.7 0.3 15.7C0.3 15.7 0.6 17.7 1.4 18.5C2.5 19.6 3.9 19.6 4.5 19.7C6.7 19.9 14 20 14 20C14 20 19.9 20 23.8 19.7C24.3 19.6 25.5 19.6 26.6 18.5C27.4 17.6 27.7 15.7 27.7 15.7C27.7 15.7 28 13.4 28 11.1V8.9C28 6.6 27.7 4.3 27.7 4.3ZM11.1 13.7V5.7L18.7 9.7L11.1 13.7Z" fill="#FFC700"/>
</svg>
