<svg width="394" height="88" viewBox="0 0 394 88" fill="none" xmlns="http://www.w3.org/2000/svg">
<g clip-path="url(#clip0)">
<path d="M123.034 13.7422C121.586 8.3302 117.335 4.07714 111.926 2.62841C102.12 0 62.8257 0 62.8257 0C62.8257 0 23.5312 0 13.736 2.62841C8.32642 4.07714 4.07529 8.3302 2.62722 13.7422C0 23.5419 0 44 0 44C0 44 0 64.4581 2.62722 74.2578C4.07529 79.6698 8.32642 83.9229 13.736 85.3716C23.5312 88 62.8257 88 62.8257 88C62.8257 88 102.12 88 111.915 85.3716C117.325 83.9229 121.576 79.6698 123.024 74.2578C125.651 64.4581 125.651 44 125.651 44C125.651 44 125.651 23.5419 123.034 13.7422Z" fill="#FF0000"/>
<path d="M50.2585 62.8539L82.9125 43.9997L50.2585 25.1455V62.8539Z" fill="white"/>
<path d="M182.395 80.0527C179.913 78.3763 178.144 75.7686 177.089 72.2296C176.044 68.6905 175.517 63.9925 175.517 58.1148V50.1157C175.517 44.1863 176.117 39.4158 177.317 35.825C178.516 32.2342 180.389 29.6058 182.933 27.9605C185.477 26.3152 188.818 25.4873 192.956 25.4873C197.031 25.4873 200.289 26.3255 202.751 28.0019C205.202 29.6783 207.002 32.3067 208.14 35.8664C209.278 39.4365 209.846 44.1863 209.846 50.1157V58.1148C209.846 63.9925 209.288 68.7112 208.181 72.2709C207.074 75.841 205.275 78.4487 202.792 80.0941C200.31 81.7394 196.938 82.5673 192.687 82.5673C188.301 82.5776 184.878 81.7291 182.395 80.0527ZM196.317 71.4224C197 69.6218 197.352 66.6933 197.352 62.6162V45.4487C197.352 41.4958 197.01 38.5983 196.317 36.7771C195.624 34.9454 194.414 34.0348 192.676 34.0348C191.001 34.0348 189.811 34.9454 189.129 36.7771C188.436 38.6087 188.094 41.4958 188.094 45.4487V62.6162C188.094 66.6933 188.425 69.6322 189.087 71.4224C189.749 73.223 190.939 74.1232 192.676 74.1232C194.414 74.1232 195.624 73.223 196.317 71.4224Z" fill="white"/>
<path d="M373.251 58.2491V61.0327C373.251 64.5718 373.355 67.2209 373.562 68.9904C373.768 70.7599 374.203 72.0431 374.865 72.8606C375.527 73.6677 376.54 74.0713 377.916 74.0713C379.768 74.0713 381.05 73.3469 381.733 71.9086C382.426 70.4702 382.798 68.0694 382.86 64.7167L393.555 65.3479C393.617 65.8239 393.648 66.4862 393.648 67.3244C393.648 72.4156 392.252 76.2237 389.47 78.7383C386.687 81.2529 382.746 82.5153 377.657 82.5153C371.545 82.5153 367.262 80.6009 364.811 76.7618C362.349 72.9227 361.129 66.9932 361.129 58.9631V49.3394C361.129 41.0713 362.401 35.028 364.945 31.2199C367.49 27.4119 371.845 25.5078 378.019 25.5078C382.271 25.5078 385.539 26.2839 387.815 27.8465C390.09 29.409 391.693 31.8305 392.624 35.1315C393.555 38.4326 394.021 42.9857 394.021 48.8013V58.2388H373.251V58.2491ZM374.823 35.0591C374.192 35.8352 373.779 37.108 373.562 38.8775C373.355 40.647 373.251 43.3272 373.251 46.9283V50.8813H382.322V46.9283C382.322 43.3893 382.198 40.7091 381.96 38.8775C381.722 37.0459 381.288 35.7628 380.657 35.0073C380.026 34.2623 379.054 33.8794 377.74 33.8794C376.427 33.8898 375.444 34.283 374.823 35.0591Z" fill="white"/>
<path d="M152.192 57.2246L138.084 6.25H150.393L155.337 29.3572C156.599 35.0487 157.519 39.9019 158.119 43.917H158.481C158.895 41.0402 159.826 36.218 161.264 29.44L166.384 6.25H178.692L164.418 57.2246V81.6771H152.192V57.2246Z" fill="white"/>
<path d="M249.886 26.5635V81.6773H240.184L239.108 74.9304H238.839C236.201 80.0216 232.25 82.5672 226.975 82.5672C223.324 82.5672 220.624 81.3669 218.887 78.9765C217.149 76.5757 216.28 72.8297 216.28 67.7385V26.5635H228.682V67.0141C228.682 69.4769 228.951 71.2258 229.489 72.2709C230.026 73.3161 230.926 73.8438 232.188 73.8438C233.264 73.8438 234.298 73.5127 235.291 72.8504C236.284 72.1881 237.008 71.3499 237.494 70.3358V26.5635H249.886Z" fill="white"/>
<path d="M313.487 26.5635V81.6773H303.785L302.709 74.9304H302.44C299.803 80.0216 295.852 82.5672 290.577 82.5672C286.925 82.5672 284.226 81.3669 282.488 78.9765C280.75 76.5757 279.881 72.8297 279.881 67.7385V26.5635H292.283V67.0141C292.283 69.4769 292.552 71.2258 293.09 72.2709C293.628 73.3161 294.528 73.8438 295.79 73.8438C296.865 73.8438 297.9 73.5127 298.893 72.8504C299.886 72.1881 300.61 71.3499 301.096 70.3358V26.5635H313.487Z" fill="white"/>
<path d="M283.574 16.2255H271.265V81.6771H259.133V16.2255H246.824V6.25H283.574V16.2255Z" fill="white"/>
<path d="M354.53 35.3695C353.775 31.8926 352.564 29.378 350.889 27.8154C349.213 26.2529 346.907 25.4767 343.969 25.4767C341.694 25.4767 339.563 26.1183 337.587 27.4118C335.612 28.7053 334.081 30.3921 333.005 32.4927H332.912V3.45605H320.965V81.6668H331.205L332.467 76.4513H332.736C333.698 78.314 335.136 79.7731 337.049 80.8596C338.963 81.9358 341.094 82.4739 343.431 82.4739C347.62 82.4739 350.713 80.5388 352.689 76.679C354.664 72.8088 355.657 66.7759 355.657 58.5595V49.8361C355.657 43.679 355.274 38.8568 354.53 35.3695ZM343.162 57.8559C343.162 61.8709 342.997 65.0167 342.666 67.2933C342.335 69.5699 341.787 71.1945 341.001 72.1466C340.225 73.1089 339.17 73.5849 337.856 73.5849C336.832 73.5849 335.891 73.3469 335.022 72.8606C334.153 72.3846 333.45 71.6602 332.912 70.7082V39.4259C333.326 37.9255 334.05 36.7044 335.074 35.742C336.087 34.7797 337.204 34.3037 338.394 34.3037C339.656 34.3037 340.628 34.8004 341.311 35.7834C342.004 36.7768 342.48 38.4325 342.749 40.7712C343.017 43.1099 343.152 46.4316 343.152 50.7467V57.8559H343.162Z" fill="white"/>
</g>
<defs>
<clipPath id="clip0">
<rect width="394" height="88" fill="white"/>
</clipPath>
</defs>
</svg>
