<svg width="126" height="88" viewBox="0 0 126 88" fill="none" xmlns="http://www.w3.org/2000/svg">
<path d="M123.034 13.7422C121.586 8.3302 117.335 4.07714 111.926 2.62841C102.12 0 62.8257 0 62.8257 0C62.8257 0 23.5312 0 13.736 2.62841C8.32642 4.07714 4.07529 8.3302 2.62722 13.7422C0 23.5419 0 44 0 44C0 44 0 64.4581 2.62722 74.2578C4.07529 79.6698 8.32642 83.9229 13.736 85.3716C23.5312 88 62.8257 88 62.8257 88C62.8257 88 102.12 88 111.915 85.3716C117.325 83.9229 121.576 79.6698 123.024 74.2578C125.651 64.4581 125.651 44 125.651 44C125.651 44 125.651 23.5419 123.034 13.7422Z" fill="#FF0000"/>
<path d="M50.2585 62.8539L82.9125 43.9997L50.2585 25.1455V62.8539Z" fill="white"/>
</svg>
